
<svg xmlns="http://www.w3.org/2000/svg">
  <!--
    use this template to generate the sprite sheet. Will output the svg content
    at /icons-svg, so  view-source:{domain}/icons-svg and select all / copy
    the content, and paste it in the svg sprite sheet file: /assets/svg/icons.svg

    statamic won't accept the /icons-svg url as a svg even with mimetype set

  -->

    <symbol id="icon--dots" role="img" fill="currentColor" preserveAspectRatio="xMinYMin">
    <title>dots icon</title>
    <path d="M23.1,8.1c0,3.8-3.1,6.9-7,6.9s-7-3.1-7-6.9c0-3.8,3.1-6.9,7-6.9S23.1,4.3,23.1,8.1C23.1,8.1,23.1,8.1,23.1,8.1z M7.1,16.7c-3.8,0-7,3.1-7,6.9s3.1,6.9,7,6.9s7-3.1,7-6.9S10.9,16.7,7.1,16.7C7.1,16.7,7.1,16.7,7.1,16.7z M25.1,16.7c-3.8,0-7,3.1-7,6.9s3.1,6.9,7,6.9s7-3.1,7-6.9S29,16.7,25.1,16.7C25.1,16.7,25.1,16.7,25.1,16.7z"/>
  </symbol>
    <symbol id="icon--addtoasana" role="img" fill="currentColor" preserveAspectRatio="xMinYMin">
    <title>addtoasana icon</title>
    <path d="M23.1,8.1c0,3.8-3.1,6.9-7,6.9s-7-3.1-7-6.9c0-3.8,3.1-6.9,7-6.9S23.1,4.3,23.1,8.1C23.1,8.1,23.1,8.1,23.1,8.1z M7.1,16.7c-3.8,0-7,3.1-7,6.9s3.1,6.9,7,6.9s7-3.1,7-6.9S10.9,16.7,7.1,16.7C7.1,16.7,7.1,16.7,7.1,16.7z M25.1,16.7c-3.8,0-7,3.1-7,6.9s3.1,6.9,7,6.9s7-3.1,7-6.9S29,16.7,25.1,16.7C25.1,16.7,25.1,16.7,25.1,16.7z"/>
  </symbol>
    <symbol id="icon--menu" role="img" fill="currentColor" preserveAspectRatio="xMinYMin">
    <title>menu icon</title>
    <path d="M1.97 8.746h28.498c1.093 0 1.978-0.886 1.978-1.978s-0.886-1.978-1.978-1.978h-28.498c-1.093 0-1.978 0.886-1.978 1.978s0.886 1.978 1.978 1.978v0z"></path><path d="M1.97 17.978h28.498c1.093 0 1.978-0.886 1.978-1.978s-0.886-1.978-1.978-1.978h-28.498c-1.093 0-1.978 0.886-1.978 1.978s0.886 1.978 1.978 1.978v0z"></path>"<path d="M1.97 27.211h28.498c1.093 0 1.978-0.886 1.978-1.978s-0.886-1.978-1.978-1.978h-28.498c-1.093 0-1.978 0.886-1.978 1.978s0.886 1.978 1.978 1.978v0z"></path>
  </symbol>
    <symbol id="icon--hamburger" role="img" fill="currentColor" preserveAspectRatio="xMinYMin">
    <title>hamburger icon</title>
    <path d="M1.97 8.746h28.498c1.093 0 1.978-0.886 1.978-1.978s-0.886-1.978-1.978-1.978h-28.498c-1.093 0-1.978 0.886-1.978 1.978s0.886 1.978 1.978 1.978v0z"></path><path d="M1.97 17.978h28.498c1.093 0 1.978-0.886 1.978-1.978s-0.886-1.978-1.978-1.978h-28.498c-1.093 0-1.978 0.886-1.978 1.978s0.886 1.978 1.978 1.978v0z"></path>"<path d="M1.97 27.211h28.498c1.093 0 1.978-0.886 1.978-1.978s-0.886-1.978-1.978-1.978h-28.498c-1.093 0-1.978 0.886-1.978 1.978s0.886 1.978 1.978 1.978v0z"></path>
  </symbol>
    <symbol id="icon--help" role="img" fill="currentColor" preserveAspectRatio="xMinYMin">
    <title>help icon</title>
    <path d="M10.273 2.945c1.484-0.956 3.309-1.435 5.472-1.435 2.843 0 5.204 0.679 7.084 2.038s2.821 3.371 2.821 6.037c0 1.636-0.407 3.012-1.224 4.131-0.477 0.679-1.393 1.547-2.747 2.603l-1.336 1.038c-0.728 0.567-1.211 1.227-1.447 1.98-0.151 0.478-0.233 1.22-0.245 2.227h-5.113c0.076-2.125 0.277-3.593 0.602-4.405s1.167-1.745 2.52-2.801l1.375-1.075c0.451-0.34 0.815-0.71 1.092-1.113 0.501-0.692 0.752-1.452 0.752-2.283 0-0.956-0.28-1.827-0.839-2.613s-1.576-1.179-3.057-1.179c-1.455 0-2.487 0.485-3.098 1.452-0.607 0.969-0.911 1.975-0.911 3.019h-5.453c0.15-3.587 1.401-6.128 3.753-7.623zM12.78 25.66h6.44v6.44h-6.44v-6.44z"></path>
  </symbol>
    <symbol id="icon--help-circle" role="img" fill="currentColor" preserveAspectRatio="xMinYMin">
    <title>help-circle icon</title>
    <path d="M16,2A14,14,0,1,1,2,16,14,14,0,0,1,16,2m0-2A16,16,0,1,0,32,16,16,16,0,0,0,16,0Z"/><path d="M11.36,13.11a6.27,6.27,0,0,1,.32-2,4.6,4.6,0,0,1,.94-1.62,4.31,4.31,0,0,1,1.51-1.07,5.11,5.11,0,0,1,2-.39A5.23,5.23,0,0,1,18,8.31a4,4,0,0,1,1.41.87,3.91,3.91,0,0,1,.9,1.33,4.46,4.46,0,0,1,.32,1.72,4.27,4.27,0,0,1-.17,1.25,4,4,0,0,1-.46,1,5.94,5.94,0,0,1-.68.87q-.39.41-.83.8t-.55.52a3.48,3.48,0,0,0-.42.53,2.44,2.44,0,0,0-.28.6,2.5,2.5,0,0,0-.1.74v.55h-2v-.55a4.15,4.15,0,0,1,.2-1.33,4.72,4.72,0,0,1,.51-1.06,5.31,5.31,0,0,1,.69-.86q.39-.38.76-.72a7.5,7.5,0,0,0,.89-.91,2.05,2.05,0,0,0,.43-1.36,2.54,2.54,0,0,0-.15-.88,2.1,2.1,0,0,0-.46-.74,2.2,2.2,0,0,0-.78-.51A3,3,0,0,0,16.14,10a2.69,2.69,0,0,0-2.08.83,3.28,3.28,0,0,0-.76,2.3Zm4.8,8.12a1.38,1.38,0,0,1,1.39,1.39,1.31,1.31,0,0,1-.4,1,1.36,1.36,0,0,1-1,.4,1.35,1.35,0,0,1-1.37-1.37,1.36,1.36,0,0,1,.4-1A1.31,1.31,0,0,1,16.16,21.24Z"/>
  </symbol>
    <symbol id="icon--info-circle" role="img" fill="currentColor" preserveAspectRatio="xMinYMin">
    <title>info-circle icon</title>
    "<path d="M0 16c0 8.837 7.163 16 16 16s16-7.163 16-16c0-8.837-7.163-16-16-16s-16 7.163-16 16zM13.909 14.545h4.182v12.545h-4.182v-12.545zM13.909 7.273h4.182v4.182h-4.182v-4.182z"></path>
  </symbol>
    <symbol id="icon--info" role="img" fill="currentColor" preserveAspectRatio="xMinYMin">
    <title>info icon</title>
    <path d="M14 13h4v12h-4v-12z"></path><path d="M14 6h4v4h-4v-4z"></path>
  </symbol>
    <symbol id="icon--alert-line" role="img" fill="currentColor" preserveAspectRatio="xMinYMin">
    <title>alert-line icon</title>
    <path d="M16 3.481l12.812 26.519h-25.625l12.801-26.518c0.001 0 0.005-0.001 0.012-0.001zM16 1.481c-0.718 0-1.437 0.377-1.801 1.13l-13.415 27.766c-0.355 0.735 0.127 1.623 0.882 1.623h28.667c0.755 0 1.238-0.888 0.882-1.623l-13.414-27.766c-0.364-0.754-1.083-1.13-1.801-1.13v0z"></path><path d="M14 12h4v10h-4v-10z"></path><path d="M14 24h4v4h-4v-4z"></path>
  </symbol>
    <symbol id="icon--alert" role="img" fill="currentColor" preserveAspectRatio="xMinYMin">
    <title>alert icon</title>
    <path d="M31.216 28.478l-14.334-27.805c-0.376-0.73-1.388-0.73-1.765 0l-14.333 27.805c-0.355 0.69 0.128 1.522 0.883 1.522h28.667c0.754 0 1.237-0.832 0.882-1.522zM18 26h-4v-4h4v4zM18 20h-4v-10h4v10z"></path>
  </symbol>
    <symbol id="icon--x-circle" role="img" fill="currentColor" preserveAspectRatio="xMinYMin">
    <title>x-circle icon</title>
    <path d="M16 0c-8.837 0-16 7.163-16 16s7.163 16 16 16 16-7.163 16-16-7.163-16-16-16zM25.081 22.253l-2.828 2.828-6.253-6.253-6.253 6.253-2.829-2.829 6.254-6.252-6.253-6.253 2.828-2.828 6.253 6.253 6.253-6.253 2.828 2.828-6.253 6.253 6.253 6.253z"></path>
  </symbol>
    <symbol id="icon--x-small" role="img" fill="currentColor" preserveAspectRatio="xMinYMin">
    <title>x-small icon</title>
    <path d="M22.253 7.626l-6.253 6.253-6.253-6.253-2.121 2.121 6.253 6.253-6.253 6.253 2.121 2.121 6.253-6.253 6.253 6.253 2.121-2.121-6.253-6.253 6.253-6.253z"></path>
  </symbol>
    <symbol id="icon--x" role="img" fill="currentColor" preserveAspectRatio="xMinYMin">
    <title>x icon</title>
    <path d="M28.374 5.747l-2.121-2.121-10.253 10.253-10.253-10.253-2.121 2.121 10.253 10.253-10.253 10.253 2.121 2.121 10.253-10.253 10.253 10.253 2.121-2.121-10.253-10.253z"></path>
  </symbol>
    <symbol id="icon--plus-small" role="img" fill="currentColor" preserveAspectRatio="xMinYMin">
    <title>plus-small icon</title>
    <path d="M18 14v-6h-4v6h-6v4h6v6h4v-6h6v-4z"></path>
  </symbol>
    <symbol id="icon--plus" role="img" fill="currentColor" preserveAspectRatio="xMinYMin">
    <title>plus icon</title>
    <path d="M28 14h-10v-10h-4v10h-10v4h10v10h4v-10h10z"></path>
  </symbol>
    <symbol id="icon--down-caret" role="img" fill="currentColor" preserveAspectRatio="xMinYMin">
    <title>down-caret icon</title>
    <path d="M28 12.5l-2.5-2.5-8.914 8.914-9.086-8.914-2.5 2.5 11.5 11.5z"></path>
  </symbol>
    <symbol id="icon--up-caret" role="img" fill="currentColor" preserveAspectRatio="xMinYMin">
    <title>up-caret icon</title>
    <path d="M5 19.5l2.5 2.5 9.086-8.914 8.914 8.914 2.5-2.5-11.5-11.5z"></path>
  </symbol>
    <symbol id="icon--left-caret" role="img" fill="currentColor" preserveAspectRatio="xMinYMin">
    <title>left-caret icon</title>
    <path d="M19.5 28l2.5-2.5-8.914-9.086 8.914-8.914-2.5-2.5-11.5 11.5z"></path>
  </symbol>
    <symbol id="icon--right-caret" role="img" fill="currentColor" preserveAspectRatio="xMinYMin">
    <title>right-caret icon</title>
    <path d="M12.5 5l-2.5 2.5 8.914 9.086-8.914 8.914 2.5 2.5 11.5-11.5z"></path>
  </symbol>
    <symbol id="icon--arrow-down" role="img" fill="currentColor" preserveAspectRatio="xMinYMin">
    <title>arrow-down icon</title>
    <path d="M8.3 17.431l6.921 10.12c0.41 0.599 1.149 0.599 1.558 0l6.921-10.12c0.527-0.77-0.090-1.92-0.858-1.599l-6.842 2.858-6.842-2.858c-0.768-0.321-1.385 0.829-0.858 1.599z"></path><path d="M17 20h-2c-0.552 0-1-0.448-1-1v-14c0-0.552 0.448-1 1-1h2c0.552 0 1 0.448 1 1v14c0 0.552-0.448 1-1 1z"></path>
  </symbol>
    <symbol id="icon--arrow-up" role="img" fill="currentColor" preserveAspectRatio="xMinYMin">
    <title>arrow-up icon</title>
    <path d="M23.7 14.569l-6.921-10.12c-0.41-0.599-1.149-0.599-1.558 0l-6.921 10.12c-0.527 0.77 0.090 1.92 0.858 1.599l6.842-2.858 6.842 2.858c0.768 0.321 1.385-0.829 0.858-1.599z"></path><path d="M17 28h-2c-0.552 0-1-0.448-1-1v-14c0-0.552 0.448-1 1-1h2c0.552 0 1 0.448 1 1v14c0 0.552-0.448 1-1 1z"></path>
  </symbol>
    <symbol id="icon--reorder" role="img" fill="currentColor" preserveAspectRatio="xMinYMin">
    <title>reorder icon</title>
    <path d="M17.7 10.569l-6.921-10.12c-0.41-0.599-1.149-0.599-1.558 0l-6.921 10.12c-0.527 0.77 0.090 1.92 0.858 1.599l6.842-2.858 6.842 2.858c0.768 0.321 1.385-0.829 0.858-1.599z"></path><path d="M15.3 21.431l6.921 10.12c0.41 0.599 1.149 0.599 1.558 0l6.921-10.12c0.527-0.77-0.090-1.92-0.858-1.599l-6.842 2.858-6.842-2.858c-0.768-0.321-1.385 0.829-0.858 1.599z"></path><path d="M24 24h-2c-0.552 0-1-0.448-1-1v-14c0-0.552 0.448-1 1-1h2c0.552 0 1 0.448 1 1v14c0 0.552-0.448 1-1 1z"></path><path d="M11 24h-2c-0.552 0-1-0.448-1-1v-14c0-0.552 0.448-1 1-1h2c0.552 0 1 0.448 1 1v14c0 0.552-0.448 1-1 1z"></path>
  </symbol>
    <symbol id="icon--down-triangle" role="img" fill="currentColor" preserveAspectRatio="xMinYMin">
    <title>down-triangle icon</title>
    <path d="M7.207 13.707l9.293 9.293 9.293-9.293c0.63-0.63 0.184-1.707-0.707-1.707h-17.172c-0.891 0-1.337 1.077-0.707 1.707z"></path>
  </symbol>
    <symbol id="icon--up-triangle" role="img" fill="currentColor" preserveAspectRatio="xMinYMin">
    <title>up-triangle icon</title>
    <path d="M7.207 18.293l9.293-9.293 9.293 9.293c0.63 0.63 0.184 1.707-0.707 1.707h-17.172c-0.891 0-1.337-1.077-0.707-1.707z"></path>
  </symbol>
    <symbol id="icon--play" role="img" fill="currentColor" preserveAspectRatio="xMinYMin">
    <title>play icon</title>
    <path d="M1.84 30.857c-0.823 0.623-1.486 0.291-1.486-0.737v-28.28c0-1.034 0.663-1.366 1.486-0.737l18.040 13.749c0.823 0.623 0.823 1.64 0 2.263l-18.040 13.743z"></path>
  </symbol>
    <symbol id="icon--check-small" role="img" fill="currentColor" preserveAspectRatio="xMinYMin">
    <title>check-small icon</title>
    <path d="M21.661 7.643l-8.265 11.685-3.967-3.967-2.354 2.353 6.67 6.67 10.6-14.676z"></path>
  </symbol>
    <symbol id="icon--check" role="img" fill="currentColor" preserveAspectRatio="xMinYMin">
    <title>check icon</title>
    <path d="M30 5.077l-4-3.077-14.5 20.5-7-7-3.5 3.5 11 11z"></path>
  </symbol>
    <symbol id="icon--check-inverted" role="img" fill="currentColor" preserveAspectRatio="xMinYMin">
    <title>check-inverted icon</title>
    <path d="M16,0C7.2,0,0,7.2,0,16s7.2,16,16,16s16-7.2,16-16S24.8,0,16,0z M13.4,25.6L5.8,18l2.7-2.7l4.6,4.6l9.4-13.4l3.1,2.3L13.4,25.6z"/>
  </symbol>
    <symbol id="icon--cog-outline" role="img" fill="currentColor" preserveAspectRatio="xMinYMin">
    <title>cog-outline icon</title>
    <path d="M17.225 2l0.739 2.216 0.324 0.973 0.98 0.304c0.611 0.19 1.231 0.449 1.842 0.771l0.908 0.478 3.016-1.508 1.733 1.733-1.508 3.016 0.478 0.908c0.322 0.612 0.581 1.231 0.771 1.842l0.304 0.98 3.188 1.062v2.45l-3.189 1.063-0.304 0.98c-0.19 0.611-0.449 1.23-0.771 1.842l-0.478 0.908 1.508 3.016-1.733 1.733-3.016-1.508-0.908 0.478c-0.612 0.322-1.231 0.581-1.842 0.771l-0.98 0.304-0.324 0.973-0.738 2.215h-2.45l-0.739-2.216-0.324-0.973-0.98-0.304c-0.611-0.19-1.23-0.449-1.842-0.771l-0.908-0.478-3.016 1.508-1.733-1.733 1.508-3.016-0.477-0.907c-0.322-0.612-0.581-1.232-0.771-1.842l-0.304-0.98-3.189-1.063v-2.45l3.189-1.063 0.304-0.98c0.19-0.611 0.449-1.231 0.771-1.842l0.478-0.908-1.508-3.015 1.733-1.733 3.016 1.508 0.908-0.478c0.612-0.322 1.232-0.581 1.842-0.771l0.98-0.304 1.062-3.189h2.45zM16 22c3.308 0 6-2.692 6-6s-2.692-6-6-6-6 2.692-6 6 2.692 6 6 6zM18.667 0h-5.333l-1.194 3.583c-0.76 0.236-1.487 0.546-2.18 0.911l-3.388-1.693-3.771 3.771 1.693 3.387c-0.365 0.693-0.675 1.42-0.911 2.18l-3.583 1.194v5.333l3.583 1.194c0.236 0.76 0.546 1.487 0.911 2.18l-1.693 3.387 3.771 3.771 3.387-1.693c0.693 0.365 1.42 0.675 2.18 0.911l1.194 3.584h5.333l1.194-3.583c0.76-0.236 1.487-0.546 2.18-0.911l3.387 1.693 3.771-3.771-1.693-3.387c0.365-0.693 0.675-1.42 0.911-2.18l3.584-1.194v-5.333l-3.583-1.194c-0.236-0.76-0.546-1.487-0.911-2.18l1.693-3.387-3.771-3.771-3.387 1.693c-0.693-0.365-1.42-0.675-2.18-0.911l-1.194-3.584zM16 20c-2.206 0-4-1.794-4-4s1.794-4 4-4 4 1.794 4 4-1.794 4-4 4v0z"></path>
  </symbol>
    <symbol id="icon--check-circle" role="img" fill="currentColor" preserveAspectRatio="xMinYMin">
    <title>check-circle icon</title>
    <path d="M16,1A15,15,0,1,0,31,16,15,15,0,0,0,16,1h0Zm0,2A13,13,0,1,1,3,16,13,13,0,0,1,16,3h0Z" transform="translate(-1 -1)"/><polygon points="20 7.7 12.7 17.9 9.3 14.4 7.2 16.5 13 22.3 22.3 9.5 20 7.7"/>
  </symbol>
    <symbol id="icon--nut" role="img" fill="currentColor" preserveAspectRatio="xMinYMin">
    <title>nut icon</title>
    <path d="M22.84,2,29.7,14,22.84,26H9.16L2.3,14,9.16,2H22.84M24,0H8L0,14,8,28H24l8-14L24,0Z"/><path d="M16,10a4,4,0,1,1-4,4,4,4,0,0,1,4-4m0-2a6,6,0,1,0,6,6,6,6,0,0,0-6-6Z"/>
  </symbol>
    <symbol id="icon--cog" role="img" fill="currentColor" preserveAspectRatio="xMinYMin">
    <title>cog icon</title>
    <path d="M32 18.667v-5.333l-3.583-1.194c-0.236-0.76-0.546-1.487-0.911-2.18l1.693-3.387-3.771-3.771-3.387 1.693c-0.693-0.365-1.42-0.675-2.18-0.911l-1.194-3.584h-5.333l-1.194 3.583c-0.76 0.236-1.487 0.546-2.18 0.911l-3.388-1.693-3.771 3.771 1.693 3.387c-0.365 0.693-0.675 1.42-0.911 2.18l-3.583 1.194v5.333l3.583 1.194c0.236 0.76 0.546 1.487 0.911 2.18l-1.693 3.387 3.771 3.771 3.387-1.693c0.693 0.365 1.42 0.675 2.18 0.911l1.194 3.584h5.333l1.194-3.583c0.76-0.236 1.487-0.546 2.18-0.911l3.387 1.693 3.771-3.771-1.693-3.387c0.365-0.693 0.675-1.42 0.911-2.18l3.584-1.194zM16 22c-3.308 0-6-2.692-6-6s2.692-6 6-6 6 2.692 6 6-2.692 6-6 6z"></path>
  </symbol>
    <symbol id="icon--star-outline" role="img" fill="currentColor" preserveAspectRatio="xMinYMin">
    <title>star-outline icon</title>
    <path d="M16.038 2l4.122 8.979 9.813 1.145-7.266 6.694 1.943 9.687-8.612-4.841-8.612 4.841 1.943-9.687-7.266-6.694 9.813-1.145 4.122-8.979zM16.038 0c-0.782 0-1.492 0.455-1.818 1.166l-3.653 7.957-8.696 1.015c-0.776 0.091-1.429 0.625-1.67 1.368-0.242 0.743-0.028 1.559 0.547 2.089l6.439 5.933-1.722 8.584c-0.154 0.766 0.153 1.552 0.785 2.011 0.349 0.253 0.762 0.382 1.176 0.382 0.337 0 0.674-0.085 0.98-0.257l7.632-4.29 7.632 4.29c0.305 0.172 0.643 0.257 0.98 0.257 0.414 0 0.827-0.129 1.176-0.382 0.632-0.459 0.939-1.245 0.785-2.011l-1.722-8.584 6.439-5.933c0.575-0.53 0.788-1.346 0.547-2.089-0.242-0.743-0.894-1.278-1.67-1.368l-8.696-1.015-3.653-7.957c-0.327-0.711-1.037-1.166-1.818-1.166v0z"></path>
  </symbol>
    <symbol id="icon--star" role="img" fill="currentColor" preserveAspectRatio="xMinYMin">
    <title>star icon</title>
    <path d="M15.935 0c-0.782 0-1.492 0.455-1.818 1.166l-3.653 7.957-8.696 1.015c-0.776 0.091-1.429 0.625-1.67 1.368-0.242 0.743-0.028 1.559 0.547 2.089l6.439 5.933-1.722 8.584c-0.154 0.766 0.153 1.552 0.785 2.011 0.349 0.253 0.761 0.382 1.176 0.382 0.337 0 0.674-0.085 0.98-0.257l7.632-4.29 7.632 4.29c0.305 0.172 0.643 0.257 0.98 0.257 0.414 0 0.827-0.129 1.176-0.382 0.632-0.459 0.939-1.245 0.785-2.011l-1.722-8.584 6.439-5.933c0.575-0.53 0.788-1.346 0.547-2.089-0.242-0.743-0.894-1.278-1.67-1.368l-8.696-1.015-3.653-7.957c-0.327-0.711-1.037-1.166-1.818-1.166v0z"></path>
  </symbol>
    <symbol id="icon--heart-outline" role="img" fill="currentColor" preserveAspectRatio="xMinYMin">
    <title>heart-outline icon</title>
    <path d="M9.029 5.071c1.986 0 4.352 0.956 5.032 3.64 0.225 0.888 1.024 1.509 1.939 1.509s1.714-0.621 1.939-1.508c0.681-2.684 3.046-3.64 5.033-3.64 2.903 0 6.028 1.884 6.028 6.020 0 3.928-4.945 10.46-13 17.242-8.055-6.783-13-13.315-13-17.243 0-4.136 3.125-6.020 6.029-6.020zM22.971 3.071c-3.090 0-6.092 1.684-6.971 5.149-0.879-3.466-3.881-5.149-6.971-5.149-3.943 0-8.029 2.742-8.029 8.020 0 6.22 8.616 14.649 15 19.838 6.384-5.188 15-13.618 15-19.838 0-5.279-4.086-8.020-8.029-8.020v0z"></path>
  </symbol>
    <symbol id="icon--heart" role="img" fill="currentColor" preserveAspectRatio="xMinYMin">
    <title>heart icon</title>
    <path d="M16 31c-6.384-5.188-15-13.618-15-19.838 0-9.414 12.999-10.758 15-2.87 2.001-7.887 15-6.544 15 2.871 0 6.219-8.616 14.649-15 19.837z"></path>
  </symbol>
    <symbol id="icon--heartbeat" role="img" fill="currentColor" preserveAspectRatio="xMinYMin">
    <title>heartbeat icon</title>
    <path d="M22.010 1.955c-2.722 0-5.032 1.189-6.416 3.168-1.384-1.979-3.7-3.168-6.416-3.168-4.14 0-8.543 3.002-8.543 8.566 0 1.258 0.32 2.573 0.875 3.906 0.315 0.761 0.709 1.533 1.167 2.299 2.951 4.992 8.458 9.979 12.192 13.027 0.212 0.172 0.469 0.257 0.726 0.257s0.515-0.086 0.726-0.257c3.734-3.048 9.241-8.034 12.192-13.027 0.452-0.772 0.846-1.538 1.167-2.299 0.555-1.338 0.875-2.653 0.875-3.906 0-5.564-4.403-8.566-8.543-8.566zM15.594 27.374c-4.54-3.786-8.029-7.457-10.179-10.648h5.993c0.452 0 0.858-0.263 1.047-0.669l0.503-1.087 2.23 5.684c0.172 0.44 0.6 0.732 1.069 0.732 0.023 0 0.040 0 0.063 0 0.492-0.029 0.915-0.366 1.052-0.841l1.058-3.814h7.354c-2.162 3.185-5.65 6.856-10.19 10.642zM17.544 14.427c-0.515 0-0.972 0.343-1.109 0.841l-0.372 1.338-1.956-4.987c-0.166-0.429-0.578-0.715-1.035-0.732-0.457-0.034-0.886 0.252-1.081 0.669l-1.321 2.871h-6.622c-0.732-1.458-1.115-2.773-1.115-3.906 0-4.112 3.139-6.268 6.239-6.268 2.087 0 4.575 1.024 5.301 3.894 0.132 0.509 0.589 0.869 1.115 0.869s0.989-0.36 1.115-0.869c0.726-2.871 3.214-3.894 5.301-3.894 3.099 0 6.239 2.15 6.239 6.268 0 1.132-0.383 2.448-1.115 3.906h-9.584z"></path>
  </symbol>
    <symbol id="icon--bell-outline" role="img" fill="currentColor" preserveAspectRatio="xMinYMin">
    <title>bell-outline icon</title>
    <path d="M30 25c-2.209 0-4-1.791-4-4v-9c0-4.498-2.97-8.301-7.056-9.558-0.262-1.39-1.478-2.442-2.944-2.442s-2.682 1.052-2.944 2.442c-4.086 1.257-7.056 5.060-7.056 9.558v9c0 2.209-1.791 4-4 4v3h9.101c0.463 2.282 2.48 4 4.899 4s4.436-1.718 4.899-4h9.101v-3zM5.313 26c1.619-1.076 2.687-2.916 2.687-5v-9c0-4.411 3.589-8 8-8s8 3.589 8 8v9c0 2.084 1.069 3.924 2.687 5h-21.374z"></path>
  </symbol>
    <symbol id="icon--bell" role="img" fill="currentColor" preserveAspectRatio="xMinYMin">
    <title>bell icon</title>
    <path d="M30 25c-2.209 0-4-1.791-4-4v-9c0-4.498-2.97-8.301-7.056-9.558-0.262-1.39-1.478-2.442-2.944-2.442s-2.682 1.052-2.944 2.442c-4.086 1.257-7.056 5.060-7.056 9.558v9c0 2.209-1.791 4-4 4v3h9.101c0.463 2.282 2.48 4 4.899 4s4.436-1.718 4.899-4h9.101v-3z"></path>
  </symbol>
    <symbol id="icon--followers" role="img" fill="currentColor" preserveAspectRatio="xMinYMin">
    <title>followers icon</title>
    <path d="M23.385 25.509c-1.813 0-3.282-1.47-3.282-3.282v-7.385c0-3.691-2.437-6.811-5.79-7.842-0.215-1.141-1.213-2.004-2.416-2.004s-2.201 0.863-2.416 2.004c-3.353 1.031-5.79 4.152-5.79 7.842v7.385c0 1.813-1.47 3.282-3.282 3.282v2.462h7.468c0.38 1.872 2.035 3.282 4.020 3.282s3.64-1.41 4.020-3.282h7.467v-2.462zM3.129 26.33c1.328-0.883 2.205-2.392 2.205-4.103v-7.385c0-3.619 2.945-6.564 6.564-6.564s6.564 2.945 6.564 6.564v7.385c0 1.711 0.877 3.22 2.205 4.103h-17.538z"></path><path d="M26.872 9.846c0-5.324-4.317-9.641-9.641-9.641v1.231c4.645 0 8.41 3.766 8.41 8.41h1.231zM24.246 10.667c0-4.328-3.508-7.836-7.836-7.836v1.231c3.648 0 6.605 2.957 6.605 6.605h1.231z"></path>
  </symbol>
    <symbol id="icon--comment-outline" role="img" fill="currentColor" preserveAspectRatio="xMinYMin">
    <title>comment-outline icon</title>
    <path d="M16 2c7.72 0 14 5.385 14 12.005s-6.28 12.005-14 12.005c-1.115 0-2.221-0.114-3.29-0.34l-0.685-0.144-0.625 0.313c-2.728 1.37-4.97 1.976-6.666 2.214 0.768-1.047 1.061-2.060 1.155-2.847 0.178-1.498-0.297-3.051-1.303-4.261-1.692-2.035-2.586-4.435-2.586-6.94 0-6.62 6.28-12.005 14-12.005zM16 0c-8.834 0-16 6.273-16 14.005 0 3.073 1.128 5.909 3.048 8.219 0.635 0.764 0.972 1.76 0.855 2.746-0.128 1.072-0.741 2.251-2.312 3.355-0.776 0.545-0.422 1.782 0.525 1.84 0.245 0.015 0.506 0.023 0.782 0.023 2.19 0 5.349-0.529 9.399-2.562v0c1.19 0.251 2.428 0.383 3.702 0.383 8.834 0 16-6.273 16-14.005 0.001-7.731-7.165-14.004-15.999-14.004v0z"></path>
  </symbol>
    <symbol id="icon--comment" role="img" fill="currentColor" preserveAspectRatio="xMinYMin">
    <title>comment icon</title>
    <path d="M32 14.005c0 7.732-7.166 14.005-16 14.005-1.274 0-2.512-0.132-3.702-0.383v0c-4.561 2.29-7.992 2.671-10.182 2.539-0.947-0.057-1.301-1.294-0.525-1.84 1.571-1.104 2.185-2.283 2.312-3.355 0.117-0.986-0.22-1.982-0.855-2.746-1.92-2.311-3.048-5.147-3.048-8.22 0-7.732 7.166-14.005 16-14.005s16 6.273 16 14.005z"></path>
  </symbol>
    <symbol id="icon--conversation" role="img" fill="currentColor" preserveAspectRatio="xMinYMin">
    <title>conversation icon</title>
    <path d="M32 14.005c0 7.732-7.166 14.005-16 14.005-1.274 0-2.512-0.132-3.702-0.383v0c-4.561 2.29-7.992 2.671-10.182 2.539-0.947-0.057-1.301-1.294-0.525-1.84 1.571-1.104 2.185-2.283 2.312-3.355 0.117-0.986-0.22-1.982-0.855-2.746-1.92-2.311-3.048-5.147-3.048-8.22 0-7.732 7.166-14.005 16-14.005s16 6.273 16 14.005z"></path>
  </symbol>
    <symbol id="icon--comments" role="img" fill="currentColor" preserveAspectRatio="xMinYMin">
    <title>comments icon</title>
    <path d="M30.555 28.73c-1.071-0.753-1.49-1.557-1.577-2.288-0.080-0.673 0.15-1.352 0.583-1.873 1.31-1.575 2.078-3.509 2.078-5.605 0-5.034-4.457-9.151-10.103-9.514-1.093-4.26-5.428-7.45-10.626-7.45-6.024 0-10.91 4.277-10.91 9.549 0 2.096 0.769 4.029 2.078 5.605 0.433 0.521 0.663 1.2 0.583 1.873-0.087 0.731-0.505 1.535-1.577 2.288-0.529 0.372-0.287 1.215 0.358 1.254 1.493 0.090 3.832-0.17 6.943-1.731v0c0.553 0.117 1.125 0.18 1.706 0.218 1.091 4.265 5.437 7.458 10.639 7.458 0.869 0 1.713-0.090 2.525-0.261v0c2.761 1.387 4.916 1.747 6.409 1.747 0.188 0 0.366-0.006 0.533-0.016 0.646-0.039 0.887-0.882 0.358-1.254zM26.993 26.678c0.035 0.292 0.104 0.623 0.229 0.976-0.877-0.231-1.903-0.603-3.070-1.189l-0.625-0.314-0.685 0.144c-0.685 0.145-1.396 0.218-2.112 0.218-4.913 0-8.91-3.387-8.91-7.549 0-4.163 3.997-7.549 8.91-7.549s8.91 3.387 8.91 7.549c0 1.558-0.559 3.054-1.616 4.326-0.798 0.96-1.173 2.194-1.031 3.388z"></path>
  </symbol>
    <symbol id="icon--conversations" role="img" fill="currentColor" preserveAspectRatio="xMinYMin">
    <title>conversations icon</title>
    <path d="M30.555 28.73c-1.071-0.753-1.49-1.557-1.577-2.288-0.080-0.673 0.15-1.352 0.583-1.873 1.31-1.575 2.078-3.509 2.078-5.605 0-5.034-4.457-9.151-10.103-9.514-1.093-4.26-5.428-7.45-10.626-7.45-6.024 0-10.91 4.277-10.91 9.549 0 2.096 0.769 4.029 2.078 5.605 0.433 0.521 0.663 1.2 0.583 1.873-0.087 0.731-0.505 1.535-1.577 2.288-0.529 0.372-0.287 1.215 0.358 1.254 1.493 0.090 3.832-0.17 6.943-1.731v0c0.553 0.117 1.125 0.18 1.706 0.218 1.091 4.265 5.437 7.458 10.639 7.458 0.869 0 1.713-0.090 2.525-0.261v0c2.761 1.387 4.916 1.747 6.409 1.747 0.188 0 0.366-0.006 0.533-0.016 0.646-0.039 0.887-0.882 0.358-1.254zM26.993 26.678c0.035 0.292 0.104 0.623 0.229 0.976-0.877-0.231-1.903-0.603-3.070-1.189l-0.625-0.314-0.685 0.144c-0.685 0.145-1.396 0.218-2.112 0.218-4.913 0-8.91-3.387-8.91-7.549 0-4.163 3.997-7.549 8.91-7.549s8.91 3.387 8.91 7.549c0 1.558-0.559 3.054-1.616 4.326-0.798 0.96-1.173 2.194-1.031 3.388z"></path>
  </symbol>
    <symbol id="icon--archive-outline" role="img" fill="currentColor" preserveAspectRatio="xMinYMin">
    <title>archive-outline icon</title>
    <path d="M32 4c0-1.105-0.895-2-2-2h-28c-1.105 0-2 0.895-2 2v6h2v18c0 1.105 0.895 2 2 2h24c1.105 0 2-0.895 2-2v-18h2v-6zM28 28h-24v-18h24v18zM30 8h-28v-4h28v4z"></path><path d="M14 16h4c1.105 0 2-0.895 2-2s-0.895-2-2-2h-4c-1.105 0-2 0.895-2 2s0.895 2 2 2z"></path>
  </symbol>
    <symbol id="icon--archive" role="img" fill="currentColor" preserveAspectRatio="xMinYMin">
    <title>archive icon</title>
    <path d="M2 28c0 1.105 0.895 2 2 2h24c1.105 0 2-0.895 2-2v-18h-28v18zM14 14h4c1.105 0 2 0.895 2 2s-0.895 2-2 2h-4c-1.105 0-2-0.895-2-2s0.895-2 2-2zM30 2h-28c-1.105 0-2 0.895-2 2v4h32v-4c0-1.105-0.895-2-2-2z"></path>
  </symbol>
    <symbol id="icon--trash-outline" role="img" fill="currentColor" preserveAspectRatio="xMinYMin">
    <title>trash-outline icon</title>
    <path d="M28 6c0-1.105-0.895-2-2-2h-4v-1c0-1.657-1.343-3-3-3h-6c-1.657 0-3 1.343-3 3v1h-4c-1.105 0-2 0.895-2 2v4h2v19c0 1.657 1.343 3 3 3h14c1.657 0 3-1.343 3-3v-19h2v-4zM12 3c0-0.551 0.449-1 1-1h6c0.551 0 1 0.449 1 1v1h-8v-1zM24 29c0 0.551-0.449 1-1 1h-14c-0.551 0-1-0.449-1-1v-19h16v19zM26 8h-20v-2h20v2z"></path><path d="M11 27c0.552 0 1-0.448 1-1v-13c0-0.552-0.448-1-1-1s-1 0.448-1 1v13c0 0.552 0.448 1 1 1z"></path><path d="M16 27c0.552 0 1-0.448 1-1v-13c0-0.552-0.448-1-1-1s-1 0.448-1 1v13c0 0.552 0.448 1 1 1z"></path><path d="M21 27c0.552 0 1-0.448 1-1v-13c0-0.552-0.448-1-1-1s-1 0.448-1 1v13c0 0.552 0.448 1 1 1z"></path>
  </symbol>
    <symbol id="icon--trash" role="img" fill="currentColor" preserveAspectRatio="xMinYMin">
    <title>trash icon</title>
    <path d="M6 29c0 1.657 1.343 3 3 3h14c1.657 0 3-1.343 3-3v-19h-20v19z"></path><path d="M26 4h-4v-1c0-1.657-1.343-3-3-3h-6c-1.657 0-3 1.343-3 3v1h-4c-1.105 0-2 0.895-2 2v2h24v-2c0-1.105-0.895-2-2-2zM12 3c0-0.551 0.449-1 1-1h6c0.551 0 1 0.449 1 1v1h-8v-1z"></path>
  </symbol>
    <symbol id="icon--video-circle" role="img" fill="currentColor" preserveAspectRatio="xMinYMin">
    <title>video-circle icon</title>
    <path d="M12 23v-14l11 7-11 7zM16 31.6c-8.6 0-15.6-7-15.6-15.6s7-15.6 15.6-15.6 15.6 7 15.6 15.6-7 15.6-15.6 15.6zM16 3.6c-6.8 0-12.4 5.6-12.4 12.4s5.6 12.4 12.4 12.4 12.4-5.6 12.4-12.4-5.6-12.4-12.4-12.4z"></path>
  </symbol>
    <symbol id="icon--video-outline" role="img" fill="currentColor" preserveAspectRatio="xMinYMin">
    <title>video-outline icon</title>
    <path d="M30 6v20h-28v-20h28zM30 4h-28c-1.105 0-2 0.895-2 2v20c0 1.105 0.895 2 2 2h28c1.105 0 2-0.895 2-2v-20c0-1.105-0.895-2-2-2v0z"></path><path d="M13.095 10.121l8.717 5.588c0.251 0.161 0.251 0.421 0 0.582l-8.717 5.588c-0.404 0.259-1.095 0.075-1.095-0.291v-11.176c0-0.366 0.691-0.55 1.095-0.291z"></path>
  </symbol>
    <symbol id="icon--video" role="img" fill="currentColor" preserveAspectRatio="xMinYMin">
    <title>video icon</title>
    <path d="M30 4h-28c-1.105 0-2 0.895-2 2v20c0 1.105 0.895 2 2 2h28c1.105 0 2-0.895 2-2v-20c0-1.105-0.895-2-2-2zM21.812 16.291l-8.717 5.588c-0.404 0.259-1.095 0.075-1.095-0.291v-11.176c0-0.366 0.691-0.55 1.095-0.291l8.717 5.588c0.251 0.161 0.251 0.421 0 0.582z"></path>
  </symbol>
    <symbol id="icon--user" role="img" fill="currentColor" preserveAspectRatio="xMinYMin">
    <title>user icon</title>
    <path d="M20.073 18.606c2.526-1.937 3.927-5.611 3.927-9.194 0-5.198-2.946-9.412-8-9.412s-8 4.214-8 9.412c0 3.584 1.401 7.257 3.927 9.194-5.745 1.745-9.927 7.079-9.927 13.394h2c0-6.617 5.383-12 12-12s12 5.383 12 12h2c0-6.315-4.182-11.649-9.927-13.394zM10 9.412c0-5.12 3.013-7.412 6-7.412s6 2.292 6 7.412c0 4.221-2.244 8.588-6 8.588s-6-4.367-6-8.588z"></path>
  </symbol>
    <symbol id="icon--users" role="img" fill="currentColor" preserveAspectRatio="xMinYMin">
    <title>users icon</title>
    <path d="M10 17.842c-2.102-0.647-4-3.299-4-7.371 0-3.221 1.546-6.471 5-6.471 0.92 0 1.701 0.236 2.357 0.635 0.324-0.608 0.698-1.169 1.124-1.671-0.979-0.613-2.144-0.964-3.481-0.964-4.422 0-7 3.792-7 8.471 0 3.166 1.184 6.407 3.319 8.174-4.262 1.515-7.319 5.573-7.319 10.355v3h2v-3c0-4.624 3.507-8.442 8-8.941v-2.217z"></path><path d="M24.681 18.645c2.135-1.767 3.319-5.008 3.319-8.174 0-4.679-2.578-8.471-7-8.471s-7 3.792-7 8.471c0 3.166 1.184 6.407 3.319 8.174-4.262 1.515-7.319 5.573-7.319 10.355v3h2v-3c0-4.963 4.037-9 9-9s9 4.037 9 9v3h2v-3c0-4.782-3.057-8.84-7.319-10.355zM21 18c-2.458 0-5-2.816-5-7.529 0-3.221 1.546-6.471 5-6.471s5 3.25 5 6.471c0 4.713-2.542 7.529-5 7.529z"></path>
  </symbol>
    <symbol id="icon--my-tasks" role="img" fill="currentColor" preserveAspectRatio="xMinYMin">
    <title>my-tasks icon</title>
    <path d="M27.383 28.225c0.395 1.189 0.617 2.455 0.617 3.775h2c0-2.035-0.439-3.965-1.22-5.709l-1.397 1.934z"></path><path d="M22.229 19.467c-0.689-0.343-1.408-0.633-2.156-0.861 2.526-1.937 3.927-5.611 3.927-9.194 0-5.198-2.946-9.412-8-9.412s-8 4.214-8 9.412c0 3.584 1.401 7.257 3.927 9.194-5.745 1.745-9.927 7.079-9.927 13.394h2c0-6.617 5.383-12 12-12 1.806 0 3.514 0.413 5.052 1.13l1.177-1.663zM16 18c-3.756 0-6-4.367-6-8.588 0-5.12 3.013-7.412 6-7.412s6 2.292 6 7.412c0 4.221-2.244 8.588-6 8.588z"></path><path d="M29.315 14.643l-8.265 11.685-3.967-3.967-2.354 2.353 6.671 6.67 10.6-14.676z"></path>
  </symbol>
    <symbol id="icon--invite" role="img" fill="currentColor" preserveAspectRatio="xMinYMin">
    <title>invite icon</title>
    <path d="M21.284 18.244v0c-0.684-0.359-1.403-0.637-2.144-0.863 2.584-1.447 4.366-4.475 4.366-7.984 0.003-4.912-3.481-8.897-7.781-8.897s-7.784 3.984-7.784 8.897c0 3.503 1.778 6.525 4.353 7.978-5.697 1.722-9.912 7.603-9.912 14.597h2.225c0-7.113 4.988-12.9 11.122-12.9 1.253 0 2.447 0.262 3.572 0.709l1.984-1.538zM10.166 9.397c0-3.678 2.494-6.672 5.559-6.672s5.559 2.994 5.559 6.672-2.494 6.672-5.559 6.672-5.559-2.994-5.559-6.672z"></path><path d="M29.069 24.966v-2.222h-4.447v-4.45h-2.225v4.45h-4.447v2.222h4.447v4.45h2.225v-4.45h2.344z"></path><path d="M28.744 27.191l-1.9 1.447c0.334 1.219 0.534 2.509 0.534 3.856h2.225c0-1.869-0.306-3.653-0.859-5.303z"></path>
  </symbol>
    <symbol id="icon--guests" role="img" fill="currentColor" preserveAspectRatio="xMinYMin">
    <title>guests icon</title>
    <path d="M31,15.6L31,15.6C31,7,24.1,0.1,15.5,0.1C6.9,0.1,0,7,0,15.6c0,4.7,2.1,8.8,5.3,11.7l0.2,0.4c0,0,0.1,0,0.1-0.1c2.7,2.2,6.1,3.6,9.9,3.6c7.9,0,14.4-5.9,15.4-13.6H31V15.6z M29.1,15.6C29.1,15.6,29.1,15.6,29.1,15.6l-4.8,0c0-2.9-0.4-5.6-1.2-7.9c0.1-0.1,0.2-0.1,0.3-0.2c0.2-0.1,1.2-0.7,1.4-0.9c0.2-0.1,0.4-0.2,0.6-0.4C27.7,8.7,29.1,12,29.1,15.6z M23,25.8c0.3,0.2,0.6,0.4,0.9,0.5c-1,0.7-2,1.4-3.2,1.8c0.6-0.8,1.2-1.7,1.6-2.7C22.5,25.5,22.8,25.7,23,25.8z M8.9,25.7c0.4,0.9,0.9,1.7,1.5,2.4c-1-0.4-2-1-2.8-1.6c0.4-0.2,1-0.6,1.2-0.7C8.8,25.8,8.8,25.7,8.9,25.7z M8.7,15.6c0-2.5,0.4-4.9,1-6.9c1.5,0.5,3.1,0.8,4.8,0.8v6.1L8.7,15.6C8.7,15.6,8.7,15.6,8.7,15.6z M8.1,5.9C7.6,5.6,7.2,5.4,6.9,5.1c1-0.9,2.2-1.6,3.5-2.1C9.7,3.9,9.1,5,8.6,6.1C8.4,6.1,8.2,6,8.1,5.9z M22.3,5.8c-0.5-1.1-1-2-1.7-2.8c1.2,0.5,2.2,1.1,3.2,1.9c0,0-0.1,0-0.1,0.1C23.5,5.1,22.6,5.7,22.3,5.8C22.3,5.8,22.3,5.8,22.3,5.8z M16.5,2.2c1.6,0.5,3.1,2.1,4.1,4.5c-1.2,0.5-2.4,0.7-4.1,0.8V2.2z M14.5,2.2v5.4c-1.5,0-2.9-0.3-4.2-0.7C11.4,4.4,12.9,2.7,14.5,2.2z M14.5,17.5v4.6c-1.9,0.1-3.3,0.4-4.7,0.9c-0.5-1.6-0.9-3.5-1.1-5.5H14.5z M14.5,24.1V29c-1.5-0.5-2.9-2-3.9-4.1C11.7,24.4,12.9,24.2,14.5,24.1z M16.5,29v-4.9c1.4,0,2.8,0.2,4,0.6C19.4,27,18,28.5,16.5,29z M16.5,22.1v-4.6h5.7c-0.1,2-0.5,3.8-1,5.4C19.7,22.4,18.2,22.2,16.5,22.1z M16.5,15.6V9.5c2-0.1,3.4-0.4,4.8-0.9c0.6,2.1,1,4.5,1,7.1c0,0,0,0,0,0H16.5z M5.5,6.5c0.5,0.3,1,0.7,1.7,1.1C7.4,7.7,7.6,7.8,7.9,8c-0.7,2.3-1.1,4.9-1.1,7.6H1.9c0,0,0,0,0,0C1.9,12.1,3.3,8.9,5.5,6.5z M2.1,17.5h4.8C7,19.9,7.5,22,8.1,23.9C8,24,7.8,24.1,7.7,24.1c-0.2,0.1-1.2,0.7-1.4,0.9c-0.1,0.1-0.2,0.1-0.4,0.2C3.9,23.2,2.5,20.5,2.1,17.5z M25.3,25c-0.4-0.3-0.9-0.6-1.4-0.9c-0.3-0.2-0.6-0.3-0.9-0.5c0.6-1.8,1-3.9,1.2-6.1h4.8C28.5,20.4,27.2,23,25.3,25z"></path>
  </symbol>
    <symbol id="icon--world" role="img" fill="currentColor" preserveAspectRatio="xMinYMin">
    <title>world icon</title>
    <path d="M31,15.6L31,15.6C31,7,24.1,0.1,15.5,0.1C6.9,0.1,0,7,0,15.6c0,4.7,2.1,8.8,5.3,11.7l0.2,0.4c0,0,0.1,0,0.1-0.1c2.7,2.2,6.1,3.6,9.9,3.6c7.9,0,14.4-5.9,15.4-13.6H31V15.6z M29.1,15.6C29.1,15.6,29.1,15.6,29.1,15.6l-4.8,0c0-2.9-0.4-5.6-1.2-7.9c0.1-0.1,0.2-0.1,0.3-0.2c0.2-0.1,1.2-0.7,1.4-0.9c0.2-0.1,0.4-0.2,0.6-0.4C27.7,8.7,29.1,12,29.1,15.6z M23,25.8c0.3,0.2,0.6,0.4,0.9,0.5c-1,0.7-2,1.4-3.2,1.8c0.6-0.8,1.2-1.7,1.6-2.7C22.5,25.5,22.8,25.7,23,25.8z M8.9,25.7c0.4,0.9,0.9,1.7,1.5,2.4c-1-0.4-2-1-2.8-1.6c0.4-0.2,1-0.6,1.2-0.7C8.8,25.8,8.8,25.7,8.9,25.7z M8.7,15.6c0-2.5,0.4-4.9,1-6.9c1.5,0.5,3.1,0.8,4.8,0.8v6.1L8.7,15.6C8.7,15.6,8.7,15.6,8.7,15.6z M8.1,5.9C7.6,5.6,7.2,5.4,6.9,5.1c1-0.9,2.2-1.6,3.5-2.1C9.7,3.9,9.1,5,8.6,6.1C8.4,6.1,8.2,6,8.1,5.9z M22.3,5.8c-0.5-1.1-1-2-1.7-2.8c1.2,0.5,2.2,1.1,3.2,1.9c0,0-0.1,0-0.1,0.1C23.5,5.1,22.6,5.7,22.3,5.8C22.3,5.8,22.3,5.8,22.3,5.8z M16.5,2.2c1.6,0.5,3.1,2.1,4.1,4.5c-1.2,0.5-2.4,0.7-4.1,0.8V2.2z M14.5,2.2v5.4c-1.5,0-2.9-0.3-4.2-0.7C11.4,4.4,12.9,2.7,14.5,2.2z M14.5,17.5v4.6c-1.9,0.1-3.3,0.4-4.7,0.9c-0.5-1.6-0.9-3.5-1.1-5.5H14.5z M14.5,24.1V29c-1.5-0.5-2.9-2-3.9-4.1C11.7,24.4,12.9,24.2,14.5,24.1z M16.5,29v-4.9c1.4,0,2.8,0.2,4,0.6C19.4,27,18,28.5,16.5,29z M16.5,22.1v-4.6h5.7c-0.1,2-0.5,3.8-1,5.4C19.7,22.4,18.2,22.2,16.5,22.1z M16.5,15.6V9.5c2-0.1,3.4-0.4,4.8-0.9c0.6,2.1,1,4.5,1,7.1c0,0,0,0,0,0H16.5z M5.5,6.5c0.5,0.3,1,0.7,1.7,1.1C7.4,7.7,7.6,7.8,7.9,8c-0.7,2.3-1.1,4.9-1.1,7.6H1.9c0,0,0,0,0,0C1.9,12.1,3.3,8.9,5.5,6.5z M2.1,17.5h4.8C7,19.9,7.5,22,8.1,23.9C8,24,7.8,24.1,7.7,24.1c-0.2,0.1-1.2,0.7-1.4,0.9c-0.1,0.1-0.2,0.1-0.4,0.2C3.9,23.2,2.5,20.5,2.1,17.5z M25.3,25c-0.4-0.3-0.9-0.6-1.4-0.9c-0.3-0.2-0.6-0.3-0.9-0.5c0.6-1.8,1-3.9,1.2-6.1h4.8C28.5,20.4,27.2,23,25.3,25z"></path>
  </symbol>
    <symbol id="icon--all-tasks-a" role="img" fill="currentColor" preserveAspectRatio="xMinYMin">
    <title>all-tasks-a icon</title>
    <path d="M15.724 29.489c-1.017 0.329-2.099 0.511-3.224 0.511-5.79 0-10.5-4.71-10.5-10.5 0-0.098 0.012-0.193 0.015-0.291-0.326-1.183-0.515-2.423-0.515-3.709 0-0.777 0.080-1.534 0.202-2.277-1.076 1.847-1.702 3.986-1.702 6.277 0 6.904 5.596 12.5 12.5 12.5 3.565 0 6.774-1.5 9.051-3.895-1.771 0.854-3.741 1.35-5.827 1.384z"></path><path d="M19 25.5c-0.091 0-0.179-0.012-0.27-0.014-1.018 0.331-2.103 0.514-3.23 0.514-5.79 0-10.5-4.71-10.5-10.5 0-1.127 0.183-2.212 0.514-3.23-0.002-0.091-0.014-0.179-0.014-0.27 0-1.849 0.375-3.611 1.051-5.217-2.194 2.252-3.551 5.324-3.551 8.717 0 6.904 5.596 12.5 12.5 12.5 3.393 0 6.465-1.357 8.717-3.551-1.606 0.676-3.368 1.051-5.217 1.051z"></path><path d="M19 2c5.514 0 10 4.486 10 10s-4.486 10-10 10-10-4.486-10-10 4.486-10 10-10zM19 0c-6.627 0-12 5.373-12 12s5.373 12 12 12 12-5.373 12-12c0-6.627-5.373-12-12-12v0z"></path><path d="M22.937 6.008l-6.097 8.62-3.153-3.152-1.947 1.946 5.391 5.391 8.008-11.087z"></path>
  </symbol>
    <symbol id="icon--all-tasks-b" role="img" fill="currentColor" preserveAspectRatio="xMinYMin">
    <title>all-tasks-b icon</title>
    <path d="M16.5 29.5c-0.239 0-0.473-0.024-0.709-0.036-1.036 0.343-2.141 0.536-3.291 0.536-5.79 0-10.5-4.71-10.5-10.5 0-1.15 0.193-2.255 0.536-3.291-0.012-0.236-0.036-0.47-0.036-0.709 0-1.508 0.246-2.958 0.69-4.32-1.978 2.211-3.19 5.12-3.19 8.32 0 6.904 5.596 12.5 12.5 12.5 3.2 0 6.109-1.212 8.32-3.19-1.362 0.444-2.812 0.69-4.32 0.69z"></path><path d="M20 25.5c-0.091 0-0.179-0.012-0.27-0.014-1.018 0.331-2.103 0.514-3.23 0.514-5.79 0-10.5-4.71-10.5-10.5 0-1.127 0.183-2.212 0.514-3.23-0.002-0.091-0.014-0.179-0.014-0.27 0-1.849 0.375-3.611 1.051-5.217-2.194 2.252-3.551 5.324-3.551 8.717 0 6.904 5.596 12.5 12.5 12.5 3.393 0 6.465-1.357 8.717-3.551-1.606 0.676-3.368 1.051-5.217 1.051z"></path><path d="M26.843 2.579l-7.112 10.055-3.681-3.682-2.211 2.211 6.221 6.222 9.284-12.855z"></path><path d="M29.678 9.527c0.203 0.793 0.322 1.618 0.322 2.473 0 5.514-4.486 10-10 10s-10-4.486-10-10c0-5.514 4.486-10 10-10 1.109 0 2.172 0.189 3.17 0.523l1.197-1.692c-1.355-0.53-2.825-0.831-4.367-0.831-6.627 0-12 5.373-12 12s5.373 12 12 12c6.627 0 12-5.373 12-12 0-1.585-0.315-3.094-0.873-4.479l-1.449 2.006z"></path>
  </symbol>
    <symbol id="icon--check-copy" role="img" fill="currentColor" preserveAspectRatio="xMinYMin">
    <title>check-copy icon</title>
    <path d="M0.4,10.3l1.9,0.5c0.4-1.6,1.2-3.2,2.3-4.5L3,5C1,7.5,0.4,10.3,0.4,10.3z"/><path d="M0.3,16.3c0,0,0.5,2.9,2.5,5.4l1.6-1.2c-1-1.4-1.8-2.9-2.1-4.6L0.3,16.3z"/><path d="M14.2,2l0.1-2c0,0-3.2-0.4-6.6,1.3l0.9,1.8C10.3,2.3,12.3,1.9,14.2,2z"/><path d="M23.1,6.7l1.4-1c-0.7-1-2-2.6-4.4-4l-1,1.7c1.4,0.8,2.6,1.8,3.5,3.1C21.5,6.2,20.3,6,19,6C11.8,6,6,11.8,6,19s5.8,13,13,13s13-5.8,13-13C32,13.2,28.3,8.4,23.1,6.7z M19,30c-6.1,0-11-4.9-11-11S12.9,8,19,8s11,4.9,11,11S25.1,30,19,30z"/><polygon points="16.6,22.1 12.9,18.4 10.7,20.6 16.9,26.8 26.2,14 23.7,12"/>
  </symbol>
    <symbol id="icon--check-copy-b" role="img" fill="currentColor" preserveAspectRatio="xMinYMin">
    <title>check-copy-b icon</title>
    <path d="M19 8c6.065 0 11 4.935 11 11s-4.935 11-11 11-11-4.935-11-11 4.935-11 11-11zM19 6c-7.18 0-13 5.82-13 13s5.82 13 13 13 13-5.82 13-13-5.82-13-13-13v0z"></path><path d="M6.521 22.619c-2.742-2.104-4.521-5.404-4.521-9.119 0-6.341 5.159-11.5 11.5-11.5 3.715 0 7.015 1.779 9.119 4.521 1.128 0.327 2.188 0.805 3.167 1.406-2.123-4.672-6.82-7.927-12.286-7.927-7.456 0-13.5 6.044-13.5 13.5 0 5.466 3.255 10.163 7.927 12.286-0.601-0.979-1.079-2.039-1.406-3.167z"></path><path d="M23.691 12.008l-7.111 10.055-3.682-3.682-2.21 2.211 6.22 6.221 9.284-12.854z"></path>
  </symbol>
    <symbol id="icon--new-task" role="img" fill="currentColor" preserveAspectRatio="xMinYMin">
    <title>new-task icon</title>
    <path d="M13.909 23.813l-6.222-6.222 2.211-2.211 3.681 3.682 7.112-10.055 2.5 1.951-9.282 12.855z"></path><path d="M6.401 10.644l-1.457-1.457c-0.719 1.163-1.258 2.444-1.582 3.813h2.065c0.235-0.829 0.561-1.619 0.974-2.356z"></path><path d="M25.599 21.356l1.457 1.457c0.718-1.163 1.258-2.445 1.582-3.813h-2.065c-0.235 0.829-0.561 1.619-0.974 2.356z"></path><path d="M21.356 6.401l1.457-1.457c-1.163-0.719-2.444-1.258-3.813-1.582v2.065c0.829 0.235 1.619 0.561 2.356 0.974z"></path><path d="M10.644 25.599l-1.457 1.457c1.163 0.718 2.445 1.258 3.814 1.582v-2.065c-0.83-0.235-1.62-0.561-2.357-0.974z"></path><path d="M26.086 10.157l-0.487 0.487c0.413 0.737 0.739 1.527 0.975 2.356h2.065c-0.324-1.369-0.864-2.65-1.582-3.813l-0.971 0.97z"></path><path d="M21.843 26.086l-0.487-0.487c-0.737 0.413-1.527 0.739-2.356 0.975v2.065c1.369-0.324 2.65-0.864 3.814-1.582l-0.971-0.971z"></path><path d="M10.157 5.914l0.487 0.487c0.737-0.413 1.527-0.739 2.356-0.975v-2.064c-1.369 0.324-2.65 0.864-3.814 1.582l0.971 0.97z"></path><path d="M6.401 21.356c-0.413-0.737-0.739-1.527-0.975-2.356h-2.064c0.324 1.369 0.864 2.65 1.582 3.814l1.457-1.458z"></path><path d="M29 27.586l-1.414 1.414-4.328-4.328 1.414-1.414 4.328 4.328z"></path><path d="M15 0h2v6h-2v-6z"></path><path d="M7.328 23.257l1.414 1.414-4.328 4.328-1.414-1.414 4.328-4.328z"></path><path d="M3 4.415l1.414-1.414 4.328 4.328-1.414 1.414-4.328-4.328z"></path><path d="M24.672 8.742l-1.414-1.414 4.328-4.328 1.414 1.414-4.328 4.328z"></path><path d="M26 15h6v2h-6v-2z"></path><path d="M0 15h6v2h-6v-2z"></path><path d="M15 26h2v6h-2v-6z"></path>
  </symbol>
    <symbol id="icon--recently-completed" role="img" fill="currentColor" preserveAspectRatio="xMinYMin">
    <title>recently-completed icon</title>
    <path d="M21.66 7.643l-8.264 11.685-3.967-3.967-2.354 2.353 6.67 6.67 10.6-14.676z"></path><path d="M16 0c-4.164 0-7.949 1.598-10.793 4.207l-3.207-3.207v7c0 1.105 0.895 2 2 2h7l-4.376-4.376c2.483-2.249 5.77-3.624 9.376-3.624 7.72 0 14 6.28 14 14s-6.28 14-14 14c-7.72 0-14-6.28-14-14 0-1.030 0.12-2.032 0.332-3h-2.041c-0.185 0.973-0.291 1.974-0.291 3 0 8.837 7.163 16 16 16s16-7.163 16-16-7.163-16-16-16z"></path>
  </symbol>
    <symbol id="icon--merge" role="img" fill="currentColor" preserveAspectRatio="xMinYMin">
    <title>merge icon</title>
    <path d="M16.252 10.251l4.59 1.918c0.768 0.321 1.385-0.829 0.858-1.599l-6.921-10.12c-0.41-0.599-1.149-0.599-1.558 0l-6.921 10.12c-0.527 0.77 0.090 1.92 0.858 1.599l4.842-2.024v19.855h4v-10.369c3.167 4.020 8.038 6.369 14 6.369v-4c-7.445 0-12.583-4.512-13.748-11.749z"></path>
  </symbol>
    <symbol id="icon--calendar-30" role="img" fill="currentColor" preserveAspectRatio="xMinYMin">
    <title>calendar-30 icon</title>
    <path d="M8.936 23.544c0 0.51 0.082 0.932 0.245 1.266 0.305 0.615 0.856 0.923 1.657 0.923 0.491 0 0.92-0.168 1.285-0.506 0.365-0.336 0.548-0.821 0.548-1.454 0-0.838-0.339-1.397-1.017-1.679-0.386-0.158-0.993-0.237-1.822-0.237v-1.793c0.812-0.012 1.378-0.091 1.699-0.237 0.555-0.246 0.832-0.744 0.832-1.494 0-0.486-0.142-0.882-0.425-1.187s-0.683-0.457-1.197-0.457c-0.59 0-1.023 0.188-1.302 0.562-0.277 0.375-0.41 0.876-0.398 1.503h-2.338c0.023-0.633 0.132-1.233 0.324-1.802 0.205-0.498 0.527-0.958 0.967-1.38 0.327-0.299 0.717-0.527 1.167-0.686 0.451-0.158 1.004-0.237 1.659-0.237 1.218 0 2.2 0.315 2.946 0.944 0.746 0.631 1.119 1.476 1.119 2.536 0 0.75-0.223 1.383-0.668 1.898-0.281 0.322-0.574 0.542-0.879 0.659 0.229 0 0.557 0.196 0.984 0.589 0.639 0.592 0.958 1.4 0.958 2.426 0 1.078-0.373 2.026-1.119 2.843-0.747 0.818-1.852 1.227-3.314 1.227-1.804 0-3.057-0.589-3.758-1.767-0.369-0.627-0.574-1.447-0.615-2.461h2.462z"></path><path d="M24.976 16.337c0.653 1.143 0.98 2.766 0.98 4.869s-0.327 3.724-0.98 4.86-1.791 1.705-3.414 1.705-2.762-0.568-3.414-1.705c-0.654-1.137-0.98-2.757-0.98-4.86s0.326-3.727 0.98-4.869c0.652-1.143 1.791-1.714 3.414-1.714s2.76 0.571 3.414 1.714zM20.085 24.568c0.24 0.776 0.732 1.164 1.477 1.164s1.231-0.388 1.463-1.164 0.348-1.897 0.348-3.362c0-1.535-0.116-2.672-0.348-3.41s-0.719-1.107-1.463-1.107-1.236 0.369-1.477 1.107-0.36 1.875-0.36 3.41c0 1.465 0.12 2.586 0.36 3.362z"></path><path d="M28 4h-2v-2c0-1.105-0.895-2-2-2h-2c-1.105 0-2 0.895-2 2v2h-8v-2c0-1.105-0.895-2-2-2h-2c-1.105 0-2 0.895-2 2v2h-2c-1.105 0-2 0.895-2 2v24c0 1.105 0.895 2 2 2h24c1.105 0 2-0.895 2-2v-24c0-1.105-0.895-2-2-2zM22 2h2v6h-2v-6zM8 2h2v6h-2v-6zM28 30h-24v-18h24v18z"></path>
  </symbol>
    <symbol id="icon--calendar-dots" role="img" fill="currentColor" preserveAspectRatio="xMinYMin">
    <title>calendar-dots icon</title>
    <path d="M14 14h2v2h-2v-2z"></path><path d="M18 14h2v2h-2v-2z"></path><path d="M22 14h2v2h-2v-2z"></path><path d="M6 18h2v2h-2v-2z"></path><path d="M10 18h2v2h-2v-2z"></path><path d="M14 18h2v2h-2v-2z"></path><path d="M18 18h2v2h-2v-2z"></path><path d="M22 18h2v2h-2v-2z"></path><path d="M6 22h2v2h-2v-2z"></path><path d="M10 22h2v2h-2v-2z"></path><path d="M14 22h2v2h-2v-2z"></path><path d="M18 22h2v2h-2v-2z"></path><path d="M22 22h2v2h-2v-2z"></path><path d="M6 26h2v2h-2v-2z"></path><path d="M10 26h2v2h-2v-2z"></path><path d="M14 26h2v2h-2v-2z"></path><path d="M28 4h-2v-2c0-1.105-0.895-2-2-2h-2c-1.105 0-2 0.895-2 2v2h-8v-2c0-1.105-0.895-2-2-2h-2c-1.105 0-2 0.895-2 2v2h-2c-1.105 0-2 0.895-2 2v24c0 1.105 0.895 2 2 2h24c1.105 0 2-0.895 2-2v-24c0-1.105-0.895-2-2-2zM22 2h2v6h-2v-6zM8 2h2v6h-2v-6zM28 30h-24v-18h24v18z"></path>
  </symbol>
    <symbol id="icon--calendar" role="img" fill="currentColor" preserveAspectRatio="xMinYMin">
    <title>calendar icon</title>
    <path d="M15.926 13.098l2.388 5.203 5.686 0.663-4.21 3.879 1.126 5.613-4.99-2.805-4.991 2.805 1.126-5.613-4.21-3.879 5.686-0.663z"></path><path d="M28 4h-2v-2c0-1.105-0.895-2-2-2h-2c-1.105 0-2 0.895-2 2v2h-8v-2c0-1.105-0.895-2-2-2h-2c-1.105 0-2 0.895-2 2v2h-2c-1.105 0-2 0.895-2 2v24c0 1.105 0.895 2 2 2h24c1.105 0 2-0.895 2-2v-24c0-1.105-0.895-2-2-2zM22 2h2v6h-2v-6zM8 2h2v6h-2v-6zM28 30h-24v-18h24v18z"></path>
  </symbol>
    <symbol id="icon--project" role="img" fill="currentColor" preserveAspectRatio="xMinYMin">
    <title>project icon</title>
    <path d="M26 4h-2v-2h-6v-1c0-0.552-0.448-1-1-1h-2c-0.552 0-1 0.448-1 1v1h-6v2h-2c-1.105 0-2 0.895-2 2v24c0 1.105 0.895 2 2 2h20c1.105 0 2-0.895 2-2v-24c0-1.105-0.895-2-2-2zM26 30h-20v-24h2v1c0 0.552 0.448 1 1 1h14c0.552 0 1-0.448 1-1v-1h2v24z"></path><path d="M8 20h12v2h-12v-2z"></path><path d="M8 16h16v2h-16v-2z"></path><path d="M8 12h14v2h-14v-2z"></path>
  </symbol>
    <symbol id="icon--project-zoom" role="img" fill="currentColor" preserveAspectRatio="xMinYMin">
    <title>project-zoom icon</title>
    <path d="M30 6h-4v-2h-6c0-2.209-1.791-4-4-4s-4 1.791-4 4h-6v2h-4c-1.103 0-2 0.897-2 2v24h2v-24h4v3c0 0.552 0.448 1 1 1h18c0.552 0 1-0.448 1-1v-3h4v24h2v-24c0-1.103-0.897-2-2-2z"></path><path d="M6 28h18v2h-18v-2z"></path><path d="M6 22h16v2h-16v-2z"></path><path d="M6 16h18v2h-18v-2z"></path>
  </symbol>
    <symbol id="icon--lock-open" role="img" fill="currentColor" preserveAspectRatio="xMinYMin">
    <title>lock-open icon</title>
    <path d="M30 12h-14v-4c0-4.418-3.582-8-8-8s-8 3.582-8 8v4h4v-4c0-2.209 1.791-4 4-4s4 1.791 4 4v4h-2c-1.105 0-2 0.895-2 2v16c0 1.105 0.895 2 2 2h20c1.105 0 2-0.895 2-2v-16c0-1.105-0.895-2-2-2zM30 30h-20v-16h20v16z"></path><path d="M20 26c1.105 0 2-0.895 2-2v-4c0-1.105-0.895-2-2-2s-2 0.895-2 2v4c0 1.105 0.895 2 2 2z"></path>
  </symbol>
    <symbol id="icon--lock" role="img" fill="currentColor" preserveAspectRatio="xMinYMin">
    <title>lock icon</title>
    <path d="M25.272 13.456h-1.031v-5.153c0-4.544-3.697-8.241-8.241-8.241s-8.241 3.697-8.241 8.241v5.15h-1.031c-1.703 0-3.091 1.387-3.091 3.091v12.363c0 1.703 1.388 3.091 3.091 3.091h18.544c1.703 0 3.091-1.387 3.091-3.091v-12.359c0-1.706-1.387-3.091-3.091-3.091zM9.819 8.303c0-3.409 2.772-6.181 6.181-6.181s6.181 2.772 6.181 6.181v5.15h-12.363v-5.15zM26.303 28.909c0 0.569-0.462 1.031-1.031 1.031h-18.544c-0.569 0-1.031-0.462-1.031-1.031v-12.363c0-0.569 0.463-1.031 1.031-1.031h18.547c0.569 0 1.031 0.463 1.031 1.031v12.363z"></path><path d="M16 17.578c-1.703 0-3.091 1.387-3.091 3.091 0 0.884 0.384 1.722 1.031 2.303v2.856c0 1.131 0.925 2.050 2.059 2.050s2.059-0.922 2.059-2.050v-2.859c0.647-0.581 1.031-1.419 1.031-2.303 0-1.703-1.387-3.087-3.091-3.087zM16.516 21.559l-0.516 0.297-0.516-0.297c-0.319-0.184-0.516-0.525-0.516-0.894 0-0.569 0.463-1.031 1.031-1.031s1.031 0.462 1.031 1.031c0 0.369-0.2 0.712-0.516 0.894z"></path>
  </symbol>
    <symbol id="icon--search" role="img" fill="currentColor" preserveAspectRatio="xMinYMin">
    <title>search icon</title>
    <path d="M18.343 21.657l3-3 8 8-3 3-8-8z"></path><path d="M12.5 3.2c5.128 0 9.3 4.172 9.3 9.3s-4.172 9.3-9.3 9.3-9.3-4.172-9.3-9.3 4.172-9.3 9.3-9.3zM12.5 1c-6.351 0-11.5 5.149-11.5 11.5s5.149 11.5 11.5 11.5 11.5-5.149 11.5-11.5-5.149-11.5-11.5-11.5v0z"></path>
  </symbol>
    <symbol id="icon--search-small" role="img" fill="currentColor" preserveAspectRatio="xMinYMin">
    <title>search-small icon</title>
    <path d="M12.697 24.348c-3.102 0-6.020-1.206-8.214-3.406-4.534-4.534-4.534-11.9 0-16.434 2.194-2.194 5.112-3.406 8.214-3.406s6.020 1.206 8.214 3.406c4.534 4.534 4.534 11.9 0 16.434-2.194 2.2-5.112 3.406-8.214 3.406zM12.697 3.691c-2.413 0-4.686 0.938-6.392 2.644-3.522 3.522-3.522 9.256 0 12.784 1.706 1.706 3.979 2.644 6.392 2.644s4.686-0.938 6.392-2.644c3.522-3.522 3.522-9.256 0-12.784-1.712-1.706-3.979-2.644-6.392-2.644z"></path><path d="M29.588 30.91c-0.329 0-0.658-0.128-0.914-0.378l-9.128-9.128c-0.506-0.506-0.506-1.322 0-1.828s1.322-0.506 1.828 0l9.128 9.128c0.506 0.506 0.506 1.322 0 1.828-0.256 0.25-0.585 0.378-0.914 0.378z"></path>
  </symbol>
    <symbol id="icon--clock-alt" role="img" fill="currentColor" preserveAspectRatio="xMinYMin">
    <title>clock-alt icon</title>
    <path d="M16 2c7.72 0 14 6.28 14 14s-6.28 14-14 14-14-6.28-14-14 6.28-14 14-14zM16 0c-8.837 0-16 7.163-16 16s7.163 16 16 16 16-7.163 16-16-7.163-16-16-16v0z"></path><path d="M23.899 22.586l-7.899-7.9v-6.686h-2v7.942l-0.003 0.003 8.272 8.272z"></path>
  </symbol>
    <symbol id="icon--clock" role="img" fill="currentColor" preserveAspectRatio="xMinYMin">
    <title>clock icon</title>
    <path d="M16 0c-8.837 0-16 7.163-16 16s7.163 16 16 16 16-7.163 16-16-7.163-16-16-16zM16 30c-7.72 0-14-6.28-14-14s6.28-14 14-14c7.72 0 14 6.28 14 14s-6.28 14-14 14z"></path><path d="M16 6h-2v12h10v-2h-8z"></path>
  </symbol>
    <symbol id="icon--camera" role="img" fill="currentColor" preserveAspectRatio="xMinYMin">
    <title>camera icon</title>
    <path d="M30 4h-20v-1c0-0.552-0.448-1-1-1h-4c-0.552 0-1 0.448-1 1v1h-2c-1.105 0-2 0.895-2 2v20c0 1.105 0.895 2 2 2h28c1.105 0 2-0.895 2-2v-20c0-1.105-0.895-2-2-2zM30 26h-28v-20h28v20z"></path><path d="M25 10h2c0.552 0 1-0.448 1-1s-0.448-1-1-1h-2c-0.552 0-1 0.448-1 1s0.448 1 1 1z"></path><path d="M22 16c0 3.314-2.686 6-6 6s-6-2.686-6-6c0-3.314 2.686-6 6-6s6 2.686 6 6z"></path>
  </symbol>
    <symbol id="icon--document" role="img" fill="currentColor" preserveAspectRatio="xMinYMin">
    <title>document icon</title>
    <path d="M17,0H4v32h24V11L17,0z M18,3.828L24.172,10H18V3.828z M26,30H6V2h10v10h10V30z"/>
  </symbol>
    <symbol id="icon--file" role="img" fill="currentColor" preserveAspectRatio="xMinYMin">
    <title>file icon</title>
    <path d="M17,0H4v32h24V11L17,0z M18,3.828L24.172,10H18V3.828z M26,30H6V2h10v10h10V30z"/>
  </symbol>
    <symbol id="icon--attachments" role="img" fill="currentColor" preserveAspectRatio="xMinYMin">
    <title>attachments icon</title>
    <path d="M21.998 32.076c-2.164 0-4.198-0.842-5.728-2.372l-11.979-11.98 1.555-1.556 11.979 11.98c2.302 2.301 6.045 2.299 8.345 0 2.3-2.3 2.3-6.044-0.001-8.344l-14.552-14.553c-1.475-1.474-4.042-1.474-5.517 0-1.52 1.521-1.52 3.995 0.001 5.516l13.609 13.576c0.732 0.732 1.922 0.732 2.654 0.001 0.73-0.731 0.73-1.922 0-2.653l-8.021-8.021 1.555-1.556 8.021 8.021c1.59 1.589 1.59 4.175 0.001 5.765-1.59 1.589-4.177 1.589-5.765 0l-13.608-13.577c-2.379-2.379-2.379-6.25-0.002-8.628 1.153-1.152 2.685-1.787 4.314-1.787s3.161 0.635 4.313 1.787l14.552 14.553c3.158 3.158 3.158 8.297 0.001 11.456-1.53 1.529-3.564 2.372-5.727 2.372z"></path>
  </symbol>
    <symbol id="icon--paperclip" role="img" fill="currentColor" preserveAspectRatio="xMinYMin">
    <title>paperclip icon</title>
    <path d="M21.998 32.076c-2.164 0-4.198-0.842-5.728-2.372l-11.979-11.98 1.555-1.556 11.979 11.98c2.302 2.301 6.045 2.299 8.345 0 2.3-2.3 2.3-6.044-0.001-8.344l-14.552-14.553c-1.475-1.474-4.042-1.474-5.517 0-1.52 1.521-1.52 3.995 0.001 5.516l13.609 13.576c0.732 0.732 1.922 0.732 2.654 0.001 0.73-0.731 0.73-1.922 0-2.653l-8.021-8.021 1.555-1.556 8.021 8.021c1.59 1.589 1.59 4.175 0.001 5.765-1.59 1.589-4.177 1.589-5.765 0l-13.608-13.577c-2.379-2.379-2.379-6.25-0.002-8.628 1.153-1.152 2.685-1.787 4.314-1.787s3.161 0.635 4.313 1.787l14.552 14.553c3.158 3.158 3.158 8.297 0.001 11.456-1.53 1.529-3.564 2.372-5.727 2.372z"></path>
  </symbol>
    <symbol id="icon--folder" role="img" fill="currentColor" preserveAspectRatio="xMinYMin">
    <title>folder icon</title>
    <path d="M30 6h-17l-1.447-2.894c-0.339-0.678-1.032-1.106-1.789-1.106h-7.764c-1.105 0-2 0.895-2 2v24c0 1.105 0.895 2 2 2h28c1.105 0 2-0.895 2-2v-20c0-1.105-0.895-2-2-2zM9.764 4l2 4h18.236v2h-28v-6h7.764zM2 28v-16h28v16h-28z"></path>
  </symbol>
    <symbol id="icon--pencil" role="img" fill="currentColor" preserveAspectRatio="xMinYMin">
    <title>pencil icon</title>
    <path d="M29 5.757l-3.757-3.757c-0.586-0.586-1.354-0.879-2.121-0.879s-1.536 0.293-2.122 0.879l-16.77 16.77c-0.151 0.151-0.266 0.336-0.333 0.539l-3.265 9.794c-0.224 0.673 0.296 1.318 0.944 1.318 0.105 0 0.213-0.017 0.321-0.053l9.794-3.265c0.203-0.068 0.388-0.182 0.539-0.333l16.77-16.77c1.172-1.172 1.172-3.071 0-4.243zM4.331 24.331l1.111-3.331h1.558v2c0 0.553 0.447 1 1 1h2v1.558l-3.331 1.11-2.338-2.337zM27.586 8.586l-15.586 15.586v-1.172c0-0.553-0.447-1-1-1h-2v-2c0-0.553-0.447-1-1-1h-1.172l15.586-15.586c0.255-0.255 0.552-0.293 0.707-0.293s0.452 0.038 0.707 0.293l3.757 3.757c0.391 0.39 0.391 1.025 0.001 1.415z"></path>
  </symbol>
    <symbol id="icon--pin" role="img" fill="currentColor" preserveAspectRatio="xMinYMin">
    <title>pin icon</title>
    <path d="M9.5 23.914l-7.793 7.793c-0.391 0.391-1.024 0.391-1.414 0v0c-0.391-0.391-0.391-1.024 0-1.414l7.793-7.793c0.391-0.391 1.024-0.391 1.414 0v0c0.391 0.391 0.391 1.024 0 1.414z"></path><path d="M20.243 4l7.757 7.757c-0.556 0.556-1.299 0.862-2.093 0.862-0.324 0-0.645-0.051-0.954-0.151l-1.315-0.427-8.559 10.698 0.472 1.102c0.487 1.137 0.241 2.433-0.628 3.302l-10.107-10.107c0.562-0.562 1.31-0.871 2.106-0.871 0.421 0 0.829 0.085 1.212 0.252l1.107 0.483 10.701-8.562-0.416-1.309c-0.343-1.083-0.069-2.244 0.715-3.029 0 0 0.001 0 0.002 0v0zM20.243 2c-0.512 0-1.024 0.195-1.414 0.586-1.367 1.367-1.755 3.324-1.208 5.048l-8.686 6.95c-0.64-0.279-1.326-0.419-2.012-0.419-1.274 0-2.547 0.484-3.52 1.457-0.781 0.781-0.781 2.047 0 2.828l10.107 10.107c0.391 0.391 0.902 0.586 1.414 0.586s1.024-0.195 1.414-0.586v0c1.489-1.489 1.834-3.68 1.052-5.504l6.946-8.682c0.51 0.166 1.041 0.249 1.571 0.249 1.27 0 2.537-0.478 3.507-1.448 0.781-0.781 0.781-2.047 0-2.828l-7.757-7.757c-0.391-0.392-0.903-0.587-1.414-0.587v0z"></path>
  </symbol>
    <symbol id="icon--subtask" role="img" fill="currentColor" preserveAspectRatio="xMinYMin">
    <title>subtask icon</title>
    <path d="M25 20c2.757 0 5 2.243 5 5s-2.243 5-5 5-5-2.243-5-5 2.243-5 5-5zM25 18c-3.866 0-7 3.134-7 7s3.134 7 7 7 7-3.134 7-7c0-3.866-3.134-7-7-7v0z"></path><path d="M18 10v-2h-16v-8h-2v26h18v-2h-16v-14z"></path><path d="M25 4c2.757 0 5 2.243 5 5s-2.243 5-5 5-5-2.243-5-5 2.243-5 5-5zM25 2c-3.866 0-7 3.134-7 7s3.134 7 7 7 7-3.134 7-7c0-3.866-3.134-7-7-7v0z"></path>
  </symbol>
    <symbol id="icon--tag" role="img" fill="currentColor" preserveAspectRatio="xMinYMin">
    <title>tag icon</title>
    <path d="M13 2c0.569 0 1.597 0.426 2 0.828l14.172 14.172-12.172 12.172-14.172-14.172c-0.402-0.403-0.828-1.431-0.828-2v-11h11zM13 0h-11c-1.1 0-2 0.9-2 2v11c0 1.1 0.636 2.636 1.414 3.414l14.172 14.172c0.389 0.389 0.902 0.583 1.414 0.583 0.513 0 1.025-0.194 1.414-0.583l12.172-12.172c0.778-0.778 0.778-2.051 0-2.828l-14.172-14.172c-0.778-0.778-2.314-1.414-3.414-1.414v0z"></path><path d="M9 6h-2c-0.552 0-1 0.448-1 1v2c0 0.552 0.448 1 1 1h2c0.552 0 1-0.448 1-1v-2c0-0.552-0.448-1-1-1z"></path>
  </symbol>
    <symbol id="icon--tags" role="img" fill="currentColor" preserveAspectRatio="xMinYMin">
    <title>tags icon</title>
    <path d="M10 4c0.569 0 1.597 0.426 2 0.828l11.172 11.172-9.672 9.672-10.672-10.672c-0.402-0.403-0.828-1.431-0.828-2v-9h8zM10 2h-8c-1.1 0-2 0.9-2 2v9c0 1.1 0.636 2.636 1.414 3.414l10.672 10.672c0.389 0.389 0.902 0.583 1.414 0.583s1.025-0.194 1.414-0.583l9.672-9.672c0.778-0.778 0.778-2.051 0-2.828l-11.172-11.172c-0.778-0.778-2.314-1.414-3.414-1.414v0z"></path><path d="M9 8h-2c-0.552 0-1 0.448-1 1v2c0 0.552 0.448 1 1 1h2c0.552 0 1-0.448 1-1v-2c0-0.552-0.448-1-1-1z"></path><path d="M20.707 27.707l-1.414-1.414 10.293-10.293-12.293-12.293 1.414-1.414 13.707 13.707z"></path>
  </symbol>
    <symbol id="icon--more" role="img" fill="currentColor" preserveAspectRatio="xMinYMin">
    <title>more icon</title>
    <path d="M8 16c0 2.209-1.791 4-4 4s-4-1.791-4-4c0-2.209 1.791-4 4-4s4 1.791 4 4z"></path><path d="M20 16c0 2.209-1.791 4-4 4s-4-1.791-4-4c0-2.209 1.791-4 4-4s4 1.791 4 4z"></path><path d="M32 16c0 2.209-1.791 4-4 4s-4-1.791-4-4c0-2.209 1.791-4 4-4s4 1.791 4 4z"></path>
  </symbol>
    <symbol id="icon--drag-handle" role="img" fill="currentColor" preserveAspectRatio="xMinYMin">
    <title>drag-handle icon</title>
    <path d="M10 2h4v4h-4v-4z"></path><path d="M18 2h4v4h-4v-4z"></path><path d="M10 10h4v4h-4v-4z"></path><path d="M18 10h4v4h-4v-4z"></path><path d="M10 18h4v4h-4v-4z"></path><path d="M18 18h4v4h-4v-4z"></path><path d="M10 26h4v4h-4v-4z"></path><path d="M18 26h4v4h-4v-4z"></path>
  </symbol>
    <symbol id="icon--sections" role="img" fill="currentColor" preserveAspectRatio="xMinYMin">
    <title>sections icon</title>
    <path d="M10 2h4v4h-4v-4z"></path><path d="M18 2h4v4h-4v-4z"></path><path d="M10 10h4v4h-4v-4z"></path><path d="M18 10h4v4h-4v-4z"></path><path d="M10 18h4v4h-4v-4z"></path><path d="M18 18h4v4h-4v-4z"></path><path d="M10 26h4v4h-4v-4z"></path><path d="M18 26h4v4h-4v-4z"></path>
  </symbol>
    <symbol id="icon--inbox" role="img" fill="currentColor" preserveAspectRatio="xMinYMin">
    <title>inbox icon</title>
    <path d="M26 2h-20c-1.105 0-2 0.895-2 2v24c0 1.105 0.895 2 2 2h20c1.105 0 2-0.895 2-2v-24c0-1.105-0.895-2-2-2zM26 22h-5c-1.105 0-2 0.895-2 2v2h-6v-2c0-1.105-0.895-2-2-2h-5v-18h20v18z"></path><path d="M9 20h14c0.552 0 1-0.448 1-1s-0.448-1-1-1h-14c-0.552 0-1 0.448-1 1s0.448 1 1 1z"></path><path d="M9 16h14c0.552 0 1-0.448 1-1s-0.448-1-1-1h-14c-0.552 0-1 0.448-1 1s0.448 1 1 1z"></path>
  </symbol>
    <symbol id="icon--keyboard" role="img" fill="currentColor" preserveAspectRatio="xMinYMin">
    <title>keyboard icon</title>
    <path d="M30 6v18h-28v-18h28zM30 4h-28c-1.105 0-2 0.895-2 2v18c0 1.105 0.895 2 2 2h28c1.105 0 2-0.895 2-2v-18c0-1.105-0.895-2-2-2v0z"></path><path d="M14 8h2v2h-2v-2z"></path><path d="M18 8h2v2h-2v-2z"></path><path d="M4 8h4v2h-4v-2z"></path><path d="M10 8h2v2h-2v-2z"></path><path d="M4 12h4v2h-4v-2z"></path><path d="M14 12h2v2h-2v-2z"></path><path d="M10 12h2v2h-2v-2z"></path><path d="M18 12h2v2h-2v-2z"></path><path d="M26 12h2v2h-2v-2z"></path><path d="M22 12h2v2h-2v-2z"></path><path d="M4 16h6v2h-6v-2z"></path><path d="M12 16h2v2h-2v-2z"></path><path d="M16 16h2v2h-2v-2z"></path><path d="M20 16h2v2h-2v-2z"></path><path d="M24 16h4v2h-4v-2z"></path><path d="M26 8h2v2h-2v-2z"></path><path d="M22 8h2v2h-2v-2z"></path><path class="path19" d="M24 20h4v2h-4v-2z"></path><path class="path20" d="M4 20h4v2h-4v-2z"></path><path class="path21" d="M10 20h12v2h-12v-2z"></path>
  </symbol>
    <symbol id="icon--repeat" role="img" fill="currentColor" preserveAspectRatio="xMinYMin">
    <title>repeat icon</title>
    <path d="M14.277 8.079h2.059l-0.918 2.447c-0.366 0.977 0.821 1.792 1.601 1.099l5.981-5.316-5.981-5.317c-0.78-0.693-1.967 0.122-1.601 1.099l0.746 1.988h-1.887c-6.769 0-12.277 5.508-12.277 12.277 0 2.407 0.697 4.739 2.017 6.743l3.34-2.199c-0.888-1.349-1.357-2.921-1.357-4.544 0-4.564 3.713-8.277 8.277-8.277z"></path><path d="M27.983 8.9l-3.34 2.2c0.888 1.349 1.357 2.921 1.357 4.544 0 4.564-3.713 8.277-8.277 8.277h-2.059l0.918-2.448c0.366-0.977-0.821-1.792-1.601-1.099l-5.981 5.317 5.981 5.316c0.78 0.693 1.967-0.121 1.601-1.099l-0.746-1.988h1.887c6.77 0 12.277-5.508 12.277-12.277 0-2.407-0.697-4.739-2.017-6.743z"></path>
  </symbol>
    <symbol id="icon--retry" role="img" fill="currentColor" preserveAspectRatio="xMinYMin">
    <title>retry icon</title>
    <path d="M27.524 4.558l-0.989 2.267c-2.564-2.949-6.328-4.825-10.535-4.825-7.72 0-14 6.28-14 14s6.28 14 14 14c7.039 0 12.865-5.227 13.84-12h-4.042c-0.929 4.559-4.969 8-9.798 8-5.514 0-10-4.486-10-10s4.486-10 10-10c3.257 0 6.15 1.569 7.977 3.987l-3.622 1.537c-1.233 0.56-0.891 2.397 0.461 2.477h9.184v-8.983c-0.079-1.351-1.916-1.693-2.476-0.46z"></path>
  </symbol>
    <symbol id="icon--link" role="img" fill="currentColor" preserveAspectRatio="xMinYMin">
    <title>link icon</title>
    <path d="M15 6h-8c-3.866 0-7 3.134-7 7v2c0 3.866 3.134 7 7 7h0.88c-0.047-0.327-0.080-0.66-0.080-1v-1.2h-0.8c-2.647 0-4.8-2.153-4.8-4.8v-2c0-2.647 2.153-4.8 4.8-4.8h8c2.647 0 4.8 2.153 4.8 4.8v2c0 2.647-2.153 4.8-4.8 4.8h-0.6v1.2c0 0.343 0.039 0.677 0.108 1h0.492c3.866 0 7-3.134 7-7v-2c0-3.866-3.134-7-7-7z"></path><path d="M25 12h-0.88c0.047 0.327 0.080 0.66 0.080 1v1.2h0.8c2.647 0 4.8 2.153 4.8 4.8v2c0 2.647-2.153 4.8-4.8 4.8h-8c-2.344 0-4.294-1.691-4.711-3.917-0.054-0.287-0.089-0.58-0.089-0.883v-2c0-2.647 2.153-4.8 4.8-4.8h0.6v-1.2c0-0.343-0.039-0.677-0.108-1h-0.492c-3.866 0-7 3.134-7 7v2c0 3.866 3.134 7 7 7h8c3.866 0 7-3.134 7-7v-2c0-3.866-3.134-7-7-7z"></path>
  </symbol>
    <symbol id="icon--barbell" role="img" fill="currentColor" preserveAspectRatio="xMinYMin">
    <title>barbell icon</title>
    <path d="M11.323 17.477h9.846v-2.954h-9.846v2.954z"></path><path d="M1.477 17.477h1.477c0.816 0 1.477-0.661 1.477-1.477s-0.661-1.477-1.477-1.477h-1.477c-0.816 0-1.477 0.661-1.477 1.477s0.661 1.477 1.477 1.477v0z"></path><path d="M29.538 17.477h0.985c0.816 0 1.477-0.661 1.477-1.477s-0.661-1.477-1.477-1.477h-0.985c-0.816 0-1.477 0.661-1.477 1.477s0.661 1.477 1.477 1.477v0z"></path><path d="M22.154 8.615v14.769c0 0.816 0.661 1.477 1.477 1.477s1.477-0.661 1.477-1.477v-14.769c0-0.816-0.661-1.477-1.477-1.477s-1.477 0.661-1.477 1.477v0z"></path><path d="M26.092 11.569v9.231c0 0.816 0.661 1.477 1.477 1.477s1.477-0.661 1.477-1.477v-9.231c0-0.816-0.661-1.477-1.477-1.477s-1.477 0.661-1.477 1.477v0z"></path><path d="M7.385 8.615v14.769c0 0.816 0.661 1.477 1.477 1.477s1.477-0.661 1.477-1.477v-14.769c0-0.816-0.661-1.477-1.477-1.477s-1.477 0.661-1.477 1.477v0z"></path><path d="M3.446 11.569v9.231c0 0.816 0.661 1.477 1.477 1.477s1.477-0.661 1.477-1.477v-9.231c0-0.816-0.661-1.477-1.477-1.477s-1.477 0.661-1.477 1.477v0z"></path>
  </symbol>
    <symbol id="icon--mobile" role="img" fill="currentColor" preserveAspectRatio="xMinYMin">
    <title>mobile icon</title>
    <path d="M23 0h-14c-1.657 0-3 1.343-3 3v26c0 1.657 1.343 3 3 3h14c1.657 0 3-1.343 3-3v-26c0-1.657-1.343-3-3-3zM24 29c0 0.551-0.449 1-1 1h-14c-0.551 0-1-0.449-1-1v-5h16v5zM8 4v-1c0-0.551 0.449-1 1-1h14c0.551 0 1 0.449 1 1v1h-16z"></path><path d="M15 28h2c0.552 0 1-0.448 1-1s-0.448-1-1-1h-2c-0.552 0-1 0.448-1 1s0.448 1 1 1z"></path><path d="M8 6h16v16h-16v-16z"></path>
  </symbol>
    <symbol id="icon--brain" role="img" fill="currentColor" preserveAspectRatio="xMinYMin">
    <title>brain icon</title>
    <path d="M16.232 30.35l0.155-3.567c0.001-0.365 0.267-0.628 0.601-0.628h2.341c1.609 0 2.919-1.294 2.919-2.898v-0.932c0-0.241 0.069-0.478 0.199-0.684l0.174-0.276c0.408-0.644 0.292-1.486-0.273-1.997l-0.312-0.283-0.741 0.818 0.265 1.071c0.214-0.053 0.486-0.151 0.773-0.321 0.639-0.377 1.073-0.963 1.015-1.77-0.033-0.455-0.149-0.794-0.347-1.131-0.021-0.037-0.079-0.13-0.085-0.141 0.010 0.017 0.035 0.092 0.035 0.164h-1.103v1.103c0.741 0 1.439-0.337 2.15-0.873 0.842-0.636 1.020-1.824 0.409-2.681l-2.151-3.020c-0.061-0.085-0.086-0.153-0.086-0.174v-1.616c0-5.619-4.786-9.965-10.875-9.965-6.093 0-11.155 4.579-11.155 10.194 0 6.154 0.608 8.319 2.354 10.593 0.014 0.018 0.014 0.018 0.027 0.035 1.413 1.84 1.871 3.438 1.871 8.928 0 0.609 0.494 1.103 1.103 1.103s1.103-0.494 1.103-1.103c0-5.945-0.593-8.013-2.327-10.272-0.014-0.018-0.014-0.018-0.027-0.035-1.422-1.852-1.898-3.547-1.898-9.249 0-4.344 4.027-7.987 8.948-7.987 4.915 0 8.668 3.408 8.668 7.758v1.616c0 0.523 0.186 1.021 0.496 1.454l2.151 3.019c-0.080-0.113-0.056-0.273 0.058-0.36-0.358 0.271-0.683 0.427-0.819 0.427-0.609 0-1.103 0.494-1.103 1.103 0 0.369 0.095 0.657 0.268 0.952 0.021 0.036 0.080 0.133 0.088 0.146 0.035 0.059 0.041 0.077 0.047 0.17-0.014-0.189 0.058-0.285 0.065-0.289-0.070 0.042-0.156 0.073-0.18 0.079-0.858 0.212-1.131 1.296-0.476 1.889l0.313 0.283c-0.23-0.208-0.278-0.555-0.11-0.82l-0.175 0.276c-0.353 0.558-0.541 1.204-0.541 1.863v0.932c0 0.379-0.316 0.691-0.713 0.691h-2.341c-1.547 0-2.807 1.245-2.807 2.787l-0.154 3.519c-0.026 0.609 0.446 1.124 1.055 1.15s1.124-0.446 1.15-1.055v0z"></path>
  </symbol>
    <symbol id="icon--mindful" role="img" fill="currentColor" preserveAspectRatio="xMinYMin">
    <title>mindful icon</title>
    <path d="M16.232 30.35l0.155-3.567c0.001-0.365 0.267-0.628 0.601-0.628h2.341c1.609 0 2.919-1.294 2.919-2.898v-0.932c0-0.241 0.069-0.478 0.199-0.684l0.174-0.276c0.408-0.644 0.292-1.486-0.273-1.997l-0.312-0.283-0.741 0.818 0.265 1.071c0.214-0.053 0.486-0.151 0.773-0.321 0.639-0.377 1.073-0.963 1.015-1.77-0.033-0.455-0.149-0.794-0.347-1.131-0.021-0.037-0.079-0.13-0.085-0.141 0.010 0.017 0.035 0.092 0.035 0.164h-1.103v1.103c0.741 0 1.439-0.337 2.15-0.873 0.842-0.636 1.020-1.824 0.409-2.681l-2.151-3.020c-0.061-0.085-0.086-0.153-0.086-0.174v-1.616c0-5.619-4.786-9.965-10.875-9.965-6.093 0-11.155 4.579-11.155 10.194 0 6.154 0.608 8.319 2.354 10.593 0.014 0.018 0.014 0.018 0.027 0.035 1.413 1.84 1.871 3.438 1.871 8.928 0 0.609 0.494 1.103 1.103 1.103s1.103-0.494 1.103-1.103c0-5.945-0.593-8.013-2.327-10.272-0.014-0.018-0.014-0.018-0.027-0.035-1.422-1.852-1.898-3.547-1.898-9.249 0-4.344 4.027-7.987 8.948-7.987 4.915 0 8.668 3.408 8.668 7.758v1.616c0 0.523 0.186 1.021 0.496 1.454l2.151 3.019c-0.080-0.113-0.056-0.273 0.058-0.36-0.358 0.271-0.683 0.427-0.819 0.427-0.609 0-1.103 0.494-1.103 1.103 0 0.369 0.095 0.657 0.268 0.952 0.021 0.036 0.080 0.133 0.088 0.146 0.035 0.059 0.041 0.077 0.047 0.17-0.014-0.189 0.058-0.285 0.065-0.289-0.070 0.042-0.156 0.073-0.18 0.079-0.858 0.212-1.131 1.296-0.476 1.889l0.313 0.283c-0.23-0.208-0.278-0.555-0.11-0.82l-0.175 0.276c-0.353 0.558-0.541 1.204-0.541 1.863v0.932c0 0.379-0.316 0.691-0.713 0.691h-2.341c-1.547 0-2.807 1.245-2.807 2.787l-0.154 3.519c-0.026 0.609 0.446 1.124 1.055 1.15s1.124-0.446 1.15-1.055v0z"></path>
  </symbol>
    <symbol id="icon--dashboards" role="img" fill="currentColor" preserveAspectRatio="xMinYMin">
    <title>dashboards icon</title>
    <path d="M2.217 28.087l8.753-9.575h-1.575l4.251 4.651 8.387-9.175h-1.575l3.212 3.514 8.606-9.415-1.575-1.439-7.819 8.553h1.575l-3.212-3.514-8.387 9.175h1.575l-4.251-4.651-9.54 10.436 1.575 1.439z"></path><path d="M2.133 2.124v0 27.751c0-0.008-0.001-0.009-0.009-0.009h27.751c-0.008 0-0.009 0.001-0.009 0.009v-27.751c0 0.008 0.001 0.009 0.009 0.009h-27.751c0.008 0 0.009-0.001 0.009-0.009v0zM0 2.124c0-1.173 0.958-2.124 2.124-2.124h27.751c1.173 0 2.124 0.958 2.124 2.124v27.751c0 1.173-0.958 2.124-2.124 2.124h-27.751c-1.173 0-2.124-0.958-2.124-2.124v-27.751z"></path>
  </symbol>
    <symbol id="icon--progress" role="img" fill="currentColor" preserveAspectRatio="xMinYMin">
    <title>progress icon</title>
    <path d="M4.161 30.114l6.621-12.138-2.034 0.757 10.299 3.862c0.749 0.281 1.592-0.014 2.002-0.701l9.563-16c0.469-0.785 0.213-1.801-0.572-2.27s-1.801-0.213-2.27 0.572l-9.563 16 2.002-0.701-10.299-3.862c-0.772-0.29-1.639 0.033-2.034 0.757l-6.621 12.138c-0.438 0.802-0.142 1.808 0.66 2.246s1.808 0.142 2.246-0.66v0z"></path><path d="M23.209 5.895l8.256-1.786-2.001-1.508 0.559 8.429c0.061 0.912 0.849 1.602 1.761 1.542s1.602-0.849 1.542-1.761l-0.559-8.429c-0.067-1.008-1.014-1.722-2.001-1.508l-8.256 1.786c-0.893 0.193-1.461 1.074-1.268 1.968s1.074 1.461 1.968 1.268v0z"></path>
  </symbol>
    <symbol id="icon--product" role="img" fill="currentColor" preserveAspectRatio="xMinYMin">
    <title>product icon</title>
    <path d="M2.913 3.946v0 24.233c0 0.471 0.388 0.856 0.873 0.856h12.092c0.483 0 0.873-0.388 0.873-0.856v-24.233c0-0.471-0.388-0.856-0.873-0.856h-12.092c-0.483 0-0.873 0.388-0.873 0.856v0zM0.319 3.946c0-1.906 1.557-3.451 3.468-3.451h12.092c1.915 0 3.468 1.544 3.468 3.451v24.233c0 1.906-1.557 3.451-3.468 3.451h-12.092c-1.915 0-3.468-1.544-3.468-3.451v-24.233z"></path><path d="M9.832 27.306v0c-0.955 0-1.73-0.774-1.73-1.73s0.774-1.73 1.73-1.73c0.955 0 1.73 0.774 1.73 1.73s-0.774 1.73-1.73 1.73v0z"></path><path d="M8.103 6.549c0 0.478-0.387 0.865-0.865 0.865s-0.865-0.387-0.865-0.865c0-0.478 0.387-0.865 0.865-0.865s0.865 0.387 0.865 0.865z"></path><path d="M10.265 7.414h2.595c0.478 0 0.865-0.387 0.865-0.865s-0.387-0.865-0.865-0.865h-2.595c-0.478 0-0.865 0.387-0.865 0.865s0.387 0.865 0.865 0.865v0z"></path>
  </symbol>
    <symbol id="icon--mobile2" role="img" fill="currentColor" preserveAspectRatio="xMinYMin">
    <title>mobile2 icon</title>
    <path d="M2.913 3.946v0 24.233c0 0.471 0.388 0.856 0.873 0.856h12.092c0.483 0 0.873-0.388 0.873-0.856v-24.233c0-0.471-0.388-0.856-0.873-0.856h-12.092c-0.483 0-0.873 0.388-0.873 0.856v0zM0.319 3.946c0-1.906 1.557-3.451 3.468-3.451h12.092c1.915 0 3.468 1.544 3.468 3.451v24.233c0 1.906-1.557 3.451-3.468 3.451h-12.092c-1.915 0-3.468-1.544-3.468-3.451v-24.233z"></path><path d="M9.832 27.306v0c-0.955 0-1.73-0.774-1.73-1.73s0.774-1.73 1.73-1.73c0.955 0 1.73 0.774 1.73 1.73s-0.774 1.73-1.73 1.73v0z"></path><path d="M8.103 6.549c0 0.478-0.387 0.865-0.865 0.865s-0.865-0.387-0.865-0.865c0-0.478 0.387-0.865 0.865-0.865s0.865 0.387 0.865 0.865z"></path><path d="M10.265 7.414h2.595c0.478 0 0.865-0.387 0.865-0.865s-0.387-0.865-0.865-0.865h-2.595c-0.478 0-0.865 0.387-0.865 0.865s0.387 0.865 0.865 0.865v0z"></path>
  </symbol>
    <symbol id="icon--cloud" role="img" fill="currentColor" preserveAspectRatio="xMinYMin">
    <title>cloud icon</title>
    <path d="M18.5 5c4.136 0 7.5 3.364 7.5 7.5 0 0.306-0.026 0.637-0.083 1.044l-0.197 1.411 1.269 0.647c1.857 0.946 3.011 2.823 3.011 4.898 0 3.033-2.467 5.5-5.5 5.5h-19.5c-1.654 0-3-1.346-3-3 0-1.042 0.542-1.995 1.449-2.549l1.402-0.857-0.568-1.542c-0.188-0.508-0.283-1.031-0.283-1.552 0-2.481 2.019-4.5 4.5-4.5 0.165 0 0.348 0.014 0.576 0.043l1.736 0.221 0.449-1.692c0.872-3.281 3.849-5.572 7.239-5.572zM18.5 3c-4.401 0-8.093 2.997-9.172 7.059-0.271-0.035-0.547-0.059-0.828-0.059-3.59 0-6.5 2.91-6.5 6.5 0 0.79 0.148 1.544 0.406 2.244-1.437 0.879-2.406 2.448-2.406 4.256 0 2.761 2.239 5 5 5h19.5c4.142 0 7.5-3.358 7.5-7.5 0-2.918-1.67-5.44-4.102-6.68 0.060-0.433 0.102-0.871 0.102-1.32 0-5.247-4.253-9.5-9.5-9.5v0z"></path>
  </symbol>
    <symbol id="icon--graduate" role="img" fill="currentColor" preserveAspectRatio="xMinYMin">
    <title>graduate icon</title>
    <path d="M16 22.295l-8-4.5v3.205c0 4.418 3.582 8 8 8s8-3.582 8-8v-3.205l-8 4.5z"></path><path d="M15.667 8.854l2.333 1.146-9.553 5.752 7.553 4.248 16-9-16-9-16 9 4 2.25v10.75l-2 5 4 1v-15.625l0.257 0.145z"></path>
  </symbol>
    <symbol id="icon--happiness" role="img" fill="currentColor" preserveAspectRatio="xMinYMin">
    <title>happiness icon</title>
    <path d="M15.994 31.454c-4.686 0-9.064-2.095-12.020-5.749-2.22-2.742-3.441-6.196-3.441-9.718-0.006-8.523 6.932-15.461 15.461-15.461s15.467 6.938 15.467 15.467c0 2.547-0.635 5.082-1.843 7.321-2.711 5.019-7.932 8.139-13.624 8.139zM15.994 2.93c-7.202 0-13.058 5.856-13.058 13.058 0 3.019 1.006 5.856 2.906 8.208 2.497 3.088 6.196 4.856 10.152 4.856 4.812 0 9.215-2.635 11.504-6.875 1.019-1.893 1.554-4.032 1.554-6.183 0-7.202-5.856-13.064-13.058-13.064z"></path><path d="M12.547 13.151c0-0.994-0.805-1.805-1.805-1.805-0.994 0-1.805 0.805-1.805 1.805s0.805 1.805 1.805 1.805c1 0 1.805-0.811 1.805-1.805z"></path><path d="M23.365 13.151c0-0.994-0.805-1.805-1.805-1.805-0.994 0-1.805 0.805-1.805 1.805s0.805 1.805 1.805 1.805c1 0 1.805-0.811 1.805-1.805z"></path><path d="M16.157 23.038c2.654 0 4.812-2.006 4.812-4.478h-9.624c0 2.472 2.151 4.478 4.812 4.478z"></path>
  </symbol>
    <symbol id="icon--mentorship" role="img" fill="currentColor" preserveAspectRatio="xMinYMin">
    <title>mentorship icon</title>
    <path d="M3.8 19.4c-1.7 0-3.2-1.4-3.2-3.2 0-1.7 1.4-3.2 3.2-3.2 1.5 0 2.7 1 3.1 2.4 0.1 0.3 0 0.5-0.1 0.8-0.4 0.7-0.7 1.4-0.9 2.1-0.1 0.3-0.2 0.5-0.5 0.6-0.5 0.3-1 0.5-1.6 0.5zM3.8 15.1c-0.6 0-1.2 0.5-1.2 1.2s0.7 1.3 1.4 1.1c0.2-0.6 0.4-1.2 0.7-1.7-0.1-0.4-0.5-0.6-0.9-0.6z"></path><path d="M13.7 30.5c-5.6 0-10.1-4.5-10.1-10.1 0-0.9 0.1-1.7 0.3-2.6 0.1-0.5 0.7-0.9 1.2-0.7 0.5 0.1 0.9 0.7 0.7 1.2-0.2 0.7-0.3 1.4-0.3 2.1 0 4.5 3.6 8.1 8.1 8.1 4.4 0 7.9-3.4 8.1-7.8 0-0.5 0.3-0.9 0.8-1l6.8-1.4v-6h-15.6c-2.8 0-5.4 1.4-6.9 3.9-0.3 0.5-0.9 0.6-1.4 0.3s-0.6-0.9-0.3-1.4c1.8-3 5.1-4.8 8.6-4.8h16.7c0.6 0 1 0.4 1 1v7.8c0 0.5-0.3 0.9-0.8 1l-6.9 1.4c-0.6 5.1-4.8 9-10 9z"></path><path d="M18.2 8.6c-0.6 0-1-0.4-1-1v-5.1c0-0.6 0.4-1 1-1s1 0.4 1 1v5.1c0 0.5-0.5 1-1 1z"></path><path d="M15.4 9.5c-0.3 0-0.5-0.1-0.7-0.3l-3.6-3.6c-0.4-0.4-0.4-1 0-1.4s1-0.4 1.4 0l3.6 3.6c0.4 0.4 0.4 1 0 1.4-0.1 0.2-0.4 0.3-0.7 0.3z"></path><path d="M20.9 9.5c-0.3 0-0.5-0.1-0.7-0.3-0.4-0.4-0.4-1 0-1.4l3.6-3.6c0.4-0.4 1-0.4 1.4 0s0.4 1 0 1.4l-3.6 3.6c-0.2 0.2-0.4 0.3-0.7 0.3z"></path>
  </symbol>
    <symbol id="icon--premium" role="img" fill="currentColor" preserveAspectRatio="xMinYMin">
    <title>premium icon</title>
    <path d="M15.9,7.1a8.49,8.49,0,0,0-8.5,8.5A8.39,8.39,0,0,0,11,22.5V32l5-3.6L21,32V22.5a8.81,8.81,0,0,0,3.6-6.9A8.67,8.67,0,0,0,15.9,7.1Zm3.6,22.1-3.6-2.6-3.6,2.6V23.4a8.5,8.5,0,0,0,7.2,0v5.8Zm-3.6-6.4A7.1,7.1,0,1,1,23,15.7,7.13,7.13,0,0,1,15.9,22.8Z" transform="translate(-4.42)"/><path d="M15.9,10a5.7,5.7,0,1,0,5.7,5.7A5.7,5.7,0,0,0,15.9,10Zm0,9.9a4.33,4.33,0,0,1-4.3-4.3,4.3,4.3,0,0,1,8.6,0A4.21,4.21,0,0,1,15.9,19.9Z" transform="translate(-4.42)"/><rect x="10.78" width="1.4" height="4.3"/><rect x="5.73" y="3.91" width="1.4" height="4.3" transform="translate(-6.82 6.32) rotate(-45)"/><rect x="23.37" y="5.33" width="4.3" height="1.4" transform="translate(-1.2 19.82) rotate(-45.02)"/>
  </symbol>
    <symbol id="icon--download" role="img" fill="currentColor" preserveAspectRatio="xMinYMin">
    <title>download icon</title>
    <path d="M11.3,13.75l3.58,3.36V1.21h2.69v15.9l3.58-3.36,1.57,2L16,22.48,9.28,15.77ZM29.43,31.21H2.57V29H29.43v2.24Z"/>
  </symbol>
    <symbol id="icon--share" role="img" fill="currentColor" preserveAspectRatio="xMinYMin">
    <title>share icon</title>
    <polygon points="12.4 4.1 12.4 16.6 14.4 16.6 14.4 4.1 17.2 6.8 18.7 5.3 13.4 0 8.1 5.3 9.6 6.8 12.4 4.1"/><polygon points="18.6 9.2 18.6 11.3 24.8 11.3 24.8 29.9 2 29.9 2 11.3 8.2 11.3 8.2 9.2 0 9.2 0 10.3 0 11.3 0 32 1 32 2 32 24.8 32 25.8 32 26.8 32 26.8 11.3 26.8 10.3 26.8 9.2 18.6 9.2"/>
  </symbol>
    <symbol id="icon--google" role="img" fill="currentColor" preserveAspectRatio="xMinYMin">
    <title>google icon</title>
    <g>
    	<path class="st0" d="M5.4,13.3c0-0.9,0.1-1.7,0.4-2.5L1.4,7.4C0.5,9.2,0,11.2,0,13.3c0,2.1,0.5,4.1,1.4,5.9l4.5-3.4
    		C5.6,15,5.4,14.2,5.4,13.3z" fill="#FBBC05" />
    	<path class="st1" d="M13.3,5.4c1.9,0,3.6,0.7,4.9,1.8l3.9-3.9C19.7,1.3,16.7,0,13.3,0C8,0,3.5,3,1.4,7.4l4.5,3.4
    		C6.9,7.7,9.8,5.4,13.3,5.4z" fill="#EA4335" />
    	<path class="st2" d="M13.3,21.2c-3.5,0-6.4-2.3-7.5-5.4l-4.5,3.4c2.2,4.4,6.7,7.4,11.9,7.4c3.2,0,6.3-1.2,8.7-3.3L17.7,20
    		C16.5,20.8,15,21.2,13.3,21.2z" fill="#34A853" />
    	<path class="st3" d="M13.3,10.9V16h7.1c-0.4,1.8-1.3,3.1-2.7,4l4.2,3.3c2.4-2.3,4-5.7,4-10c0-0.8-0.1-1.6-0.3-2.4H13.3z" fill="#4285F4" />
    </g>
  </symbol>
    <symbol id="icon--facebook" role="img" fill="currentColor" preserveAspectRatio="xMinYMin">
    <title>facebook icon</title>
    <path d="M13.9460311,15.3696 L9.19831434,15.3696 L9.19831434,32 L3.20022105,32 L3.20022105,15.3696 L0,15.3696 L0,10.5824 L3.20022105,10.5824 L3.20022105,7.3664 C3.20022105,5.9488 3.23426601,3.7632 4.23085317,2.4096 C5.2800553,0.9728 6.72232123,0 9.19831434,0 C13.2341831,0 14.9333333,0.5952 14.9333333,0.5952 L14.1348256,5.4976 C14.1348256,5.4976 12.8008843,5.0976 11.5566978,5.0976 C10.3125113,5.0976 9.19831434,5.5584 9.19831434,6.8448 L9.19831434,10.5824 L14.3019551,10.5824 L13.9460311,15.3696 Z"></path>
  </symbol>
    <symbol id="icon--twitter" role="img" fill="currentColor" preserveAspectRatio="xMinYMin">
    <title>twitter icon</title>
    <path d="M28.4101716,7.12754701 C28.4101716,15.5699446 21.8862843,25.3023256 9.94687568,25.3023256 C6.28389925,25.3023256 2.87038413,24.2454717 0,22.4332781 C0.508395869,22.4923376 1.02310721,22.5203132 1.54729177,22.5203132 C4.58819377,22.5203132 7.38594992,21.50076 9.60583993,19.7849266 C6.76703321,19.7351923 4.37030983,17.8888063 3.54614013,15.3492486 C3.94085742,15.42385 4.34820566,15.4611508 4.76502712,15.4611508 C5.35868192,15.4611508 5.93023256,15.3865494 6.47652129,15.2373465 C3.50508953,14.6529684 1.2694108,12.0698931 1.2694108,8.97393295 C2.14410432,9.37491572 3.1482651,9.66399635 4.20926518,9.69818865 C2.46935136,8.55119137 1.32309235,6.59601168 1.32309235,4.38283527 C1.32309235,3.2109708 1.64202393,2.11370779 2.20094361,1.16875607 C5.40289026,5.03559799 10.183706,7.57826411 15.5771231,7.84247754 C15.4666023,7.37621849 15.409763,6.88820071 15.409763,6.38774928 C15.409763,2.8597223 18.3148822,0 21.8957575,0 C23.7619808,0 25.4513709,0.773990058 26.6323649,2.01734758 C28.1133442,1.73137535 29.4995914,1.19984001 30.7532135,0.469367464 C30.2700795,1.96139649 29.2406568,3.2109708 27.9017758,4.00361122 C29.2122372,3.84819153 30.4658593,3.50626821 31.627907,2.99649163 C30.7626867,4.27404148 29.660636,5.39928007 28.394383,6.30071427 C28.4070139,6.57425287 28.4101716,6.85089994 28.4101716,7.12754701 Z"></path>
  </symbol>
    <symbol id="icon--linkedin" role="img" fill="currentColor" preserveAspectRatio="xMinYMin">
    <title>linkedin icon</title>
    <path d="M3.8227386,0 C5.93098448,0 7.64300852,1.71202403 7.64300852,3.82150426 C7.64300852,5.93221883 5.93098448,7.64424286 3.8227386,7.64424286 C1.70585236,7.64424286 0,5.93221883 0,3.82150426 C0,1.71202403 1.70585236,0 3.8227386,0 L3.8227386,0 Z M0.523358465,31.747122 L0.523358465,10.5412294 L7.11965005,10.5412294 L7.11965005,31.747122 L0.523358465,31.747122 Z M11.2546757,10.5412294 L17.5720073,10.5412294 L17.5720073,13.4406847 L17.6621139,13.4406847 C18.5409611,11.7730967 20.6924087,10.0154023 23.8992137,10.0154023 C30.5707998,10.0154023 31.8039014,14.4059355 31.8039014,20.1172081 L31.8039014,31.747122 L25.2150158,31.747122 L25.2150158,21.4342447 C25.2150158,18.9754473 25.1718141,15.8118441 21.7897335,15.8118441 C18.360748,15.8118441 17.8373896,18.4915877 17.8373896,21.258969 L17.8373896,31.747122 L11.2546757,31.747122 L11.2546757,10.5412294 Z"></path>
  </symbol>
    <symbol id="icon--quora" role="img" fill="currentColor" preserveAspectRatio="xMinYMin">
    <title>quora icon</title>
    <path d="M17.11 24.687c-1.14-2.128-2.478-4.277-5.087-4.277-0.499 0-0.997 0.078-1.454 0.276l-0.886-1.682c1.080-0.879 2.825-1.575 5.069-1.575 3.49 0 5.281 1.594 6.703 3.629 0.844-1.737 1.245-4.083 1.245-6.991 0-7.261-2.395-10.989-7.989-10.989-5.513 0-7.895 3.728-7.895 10.989 0 7.223 2.382 10.913 7.895 10.913 0.876 0 1.67-0.091 2.399-0.293v0 0zM18.477 27.221c-1.208 0.307-2.492 0.477-3.766 0.477-7.341 0-14.528-5.554-14.528-13.631 0-8.153 7.187-13.708 14.528-13.708 7.464 0 14.582 5.515 14.582 13.708 0 4.557-2.243 8.261-5.503 10.655 1.053 1.496 2.138 2.49 3.647 2.49 1.648 0 2.312-1.207 2.423-2.154h2.146c0.125 1.261-0.54 6.501-6.537 6.501-3.633 0-5.553-1.996-6.993-4.338v0 0z"></path>
  </symbol>
    <symbol id="icon--glassdoor" role="img" fill="currentColor" preserveAspectRatio="xMinYMin">
    <title>glassdoor icon</title>
    <path d="M18.2752143,27.4251237 L0,27.4251237 C0,29.9363534 2.03888535,32 4.57503303,32 L18.2750576,32 C20.786444,32 22.8502473,29.9612714 22.8502473,27.4251237 L22.8502473,8.65264706 C22.8502473,8.55328862 22.7754934,8.47869145 22.676135,8.47869145 L18.4493266,8.47869145 C18.3498114,8.47869145 18.2750576,8.55328862 18.2750576,8.65264706 L18.2750576,27.4251237 L18.2752143,27.4251237 Z M18.2752143,0 C20.786444,0 22.8502473,2.03888535 22.8502473,4.57503306 L4.57503303,4.57503306 L4.57503303,23.3225917 C4.57503303,23.4219501 4.50043586,23.4965474 4.4009207,23.4965474 L0.174112345,23.4965474 C0.0745971856,23.4965474 0,23.4219501 0,23.3225917 L0,4.57503306 C0,2.06364661 2.03888535,0 4.57503303,0 L18.2752143,0 L18.2752143,0 Z"></path>
  </symbol>
    <symbol id="icon--tumblr" role="img" fill="currentColor" preserveAspectRatio="xMinYMin">
    <title>tumblr icon</title>
    <path d="M11.57 0.371h-4.765c-0.078 0-0.215 0.064-0.235 0.229-0.279 2.389-1.466 6.581-6.402 8.258v3.958h3.293v10.011c0 3.388 2.625 8.186 9.53 8.186 0.080 0 0.161-0.002 0.243-0.003 2.392-0.038 5.047-0.981 5.634-1.795l-1.565-4.369c-0.605 0.272-1.762 0.508-2.625 0.528-0.047 0.002-0.093 0.003-0.139 0.003-2.484 0-2.972-1.749-2.993-3.023v-9.538h6.534v-4.639h-6.511v-7.805z"></path>
  </symbol>
    <symbol id="icon--dribbble" role="img" fill="currentColor" preserveAspectRatio="xMinYMin">
    <title>dribbble icon</title>
    <path  d="M16.2,0.8c-8.8,0-16,6.8-16,15.2s7.2,15.2,16,15.2c8.8,0,16-6.8,16-15.2S25,0.8,16.2,0.8C16.2,0.8,16.2,0.8,16.2,0.8z M26.8,7.8c1.9,2.2,3.1,5,3.1,8.1c-0.5-0.1-5-1-9.5-0.4c-0.1-0.2-0.2-0.4-0.3-0.7c-0.3-0.6-0.6-1.3-0.9-1.9C24.2,11,26.5,8.2,26.8,7.8C26.8,7.8,26.8,7.8,26.8,7.8z M16.2,3.1c3.5,0,6.6,1.2,9.1,3.3C25,6.7,22.9,9.3,18.1,11c-2.2-3.9-4.7-7.1-5.1-7.6C14,3.2,15.1,3.1,16.2,3.1L16.2,3.1L16.2,3.1z M10.4,4.3c0.4,0.5,2.8,3.7,5.1,7.5c-6.4,1.6-12,1.6-12.6,1.6C3.7,9.3,6.5,6,10.4,4.3L10.4,4.3z M2.5,16c0-0.1,0-0.3,0-0.4c0.6,0,7.2,0.1,14-1.8c0.4,0.7,0.8,1.5,1.1,2.2c-0.2,0-0.4,0.1-0.5,0.2c-7,2.2-10.8,8-11.1,8.5C3.8,22.4,2.5,19.3,2.5,16L2.5,16L2.5,16z M16.2,29c-3.2,0-6.1-1-8.4-2.7c0.2-0.5,3-5.5,10.7-8.1c0,0,0.1,0,0.1,0c1.9,4.7,2.7,8.7,2.9,9.8C19.9,28.6,18.1,29,16.2,29L16.2,29L16.2,29z M23.8,26.7c-0.1-0.8-0.9-4.6-2.7-9.2c4.3-0.6,8,0.4,8.5,0.6C29.1,21.7,26.9,24.8,23.8,26.7L23.8,26.7L23.8,26.7z"></path>
  </symbol>
    <symbol id="icon--instagram" role="img" fill="currentColor" preserveAspectRatio="xMinYMin">
    <title>instagram icon</title>
    <path d="M16,2.88704762 C20.2708571,2.88704762 20.7766984,2.90330159 22.4633016,2.98025397 C24.0227937,3.05142857 24.8697143,3.312 25.4333968,3.53098412 C26.1799365,3.82114286 26.7128254,4.16780952 27.2725079,4.72749207 C27.8321904,5.2871746 28.1788571,5.82006349 28.4689524,6.56660318 C28.688,7.13028571 28.9485714,7.97720632 29.019746,9.53663493 C29.0966984,11.2233016 29.1129524,11.7291429 29.1129524,16 C29.1129524,20.2708571 29.0966984,20.7766984 29.019746,22.4633016 C28.9485714,24.0227937 28.688,24.8697143 28.4689524,25.4333968 C28.1788571,26.1799365 27.8321904,26.7128254 27.2725079,27.2725079 C26.7128254,27.8321904 26.1799365,28.1788571 25.4333968,28.4689524 C24.8697143,28.688 24.0227937,28.9485714 22.4633016,29.019746 C20.7769524,29.0966984 20.2711111,29.1129524 16,29.1129524 C11.7288889,29.1129524 11.2230476,29.0966984 9.53669838,29.019746 C7.97720632,28.9485714 7.13028571,28.688 6.56666667,28.4689524 C5.82006349,28.1788571 5.2871746,27.8321904 4.72749207,27.2725079 C4.16780952,26.7128254 3.82114286,26.1799365 3.53104762,25.4333968 C3.312,24.8697143 3.05142857,24.0227937 2.98025397,22.4633651 C2.90330159,20.7766984 2.88704762,20.2708571 2.88704762,16 C2.88704762,11.7291429 2.90330159,11.2233016 2.98025397,9.53669838 C3.05142857,7.97720632 3.312,7.13028571 3.53104762,6.56660318 C3.82114286,5.82006349 4.16780952,5.2871746 4.72749207,4.72749207 C5.2871746,4.16780952 5.82006349,3.82114286 6.56666667,3.53098412 C7.13028571,3.312 7.97720632,3.05142857 9.53663493,2.98025397 C11.2233016,2.90330159 11.7291429,2.88704762 16,2.88704762 M16,0.00501587301 C11.656,0.00501587301 11.1113651,0.0234285714 9.40533331,0.101269841 C7.70279365,0.178984127 6.54012699,0.449333333 5.52266667,0.844761904 C4.47085714,1.25352381 3.57885714,1.80044444 2.68965079,2.68965079 C1.80044444,3.57885714 1.25352381,4.47085714 0.844761904,5.52266667 C0.449333333,6.54012699 0.178984127,7.70279365 0.101269841,9.40533331 C0.0234285714,11.1113016 0.00507936508,11.656 0.00507936508,16 C0.00507936508,20.344 0.0234285714,20.8886984 0.101269841,22.5946667 C0.178984127,24.2972063 0.449333333,25.459873 0.844761904,26.4773333 C1.25352381,27.5290793 1.80044444,28.4211429 2.68965079,29.3103492 C3.57885714,30.1995556 4.47085714,30.7464762 5.52266667,31.1552381 C6.54012699,31.5506667 7.70279365,31.8210159 9.40533331,31.8987301 C11.1113651,31.9765714 11.656,31.9949207 16,31.9949207 C20.344,31.9949207 20.8886984,31.9765714 22.5946667,31.8987301 C24.2972063,31.8210159 25.459873,31.5506667 26.4773333,31.1552381 C27.5291429,30.7464762 28.4211429,30.1995556 29.3103492,29.3103492 C30.1995556,28.4211429 30.7464762,27.5291429 31.1552381,26.4773333 C31.5506667,25.459873 31.8210159,24.2972063 31.8987301,22.5946667 C31.9765714,20.8886984 31.9949841,20.344 31.9949841,16 C31.9949841,11.656 31.9765714,11.1113016 31.8987301,9.40533331 C31.8210159,7.70279365 31.5506667,6.54012699 31.1552381,5.52266667 C30.7464762,4.47085714 30.1995556,3.57885714 29.3103492,2.68965079 C28.4211429,1.80044444 27.5291429,1.25352381 26.4773333,0.844761904 C25.459873,0.449333333 24.2972063,0.178984127 22.5946667,0.101269841 C20.8886984,0.0234285714 20.344,0.00501587301 16,0.00501587301"></path><path d="M16,7.78634921 C11.463746,7.78634921 7.78634921,11.463746 7.78634921,16 C7.78634921,20.536254 11.463746,24.2136508 16,24.2136508 C20.536254,24.2136508 24.2136508,20.536254 24.2136508,16 C24.2136508,11.463746 20.536254,7.78634921 16,7.78634921 Z M16,21.3316826 C13.0554286,21.3316826 10.6683174,18.9445714 10.6683174,16 C10.6683174,13.0554286 13.0554286,10.6683174 16,10.6683174 C18.9445714,10.6683174 21.3316826,13.0554286 21.3316826,16 C21.3316826,18.9445714 18.9445714,21.3316826 16,21.3316826 L16,21.3316826 Z"></path><path d="M26.4575238,7.46184127 C26.4575238,8.52190478 25.5982222,9.38126985 24.5381588,9.38126985 C23.4780952,9.38126985 22.6187301,8.52190478 22.6187301,7.46184127 C22.6187301,6.40177778 23.4780952,5.54247619 24.5381588,5.54247619 C25.5982222,5.54247619 26.4575238,6.40177778 26.4575238,7.46184127"></path>
  </symbol>
    <symbol id="icon--email" role="img" fill="currentColor" preserveAspectRatio="xMinYMin">
    <title>email icon</title>
    <path d="M0.167 6.113h31.638l-15.916 8.85-15.722-8.85z"></path><path d="M31.791 9.764v16.040h-31.624v-16.040l15.847 8.808 15.778-8.808z"></path>
  </symbol>
    <symbol id="icon--mail" role="img" fill="currentColor" preserveAspectRatio="xMinYMin">
    <title>mail icon</title>
    <path d="M0 28.175h32v-24h-32v24zM2 9.662v-3.487h28v3.494l-14 10.262-14-10.269zM21.688 18.244l8.313-6.094v12.744l-8.313-6.65zM2 12.144l8.313 6.094-8.313 6.656v-12.75zM20.019 19.469l8.381 6.706h-24.8l8.381-6.706 4.019 2.944 4.019-2.944z"></path>
  </symbol>
    <symbol id="icon--visibility" role="img" fill="currentColor" preserveAspectRatio="xMinYMin">
    <title>visibility icon</title>
    <path d="M31.878 15.559c-0.288-0.412-7.15-10.122-15.863-10.122s-15.575 9.709-15.863 10.122c-0.181 0.262-0.181 0.609 0 0.872 0.287 0.413 7.15 10.122 15.863 10.122s15.575-9.709 15.863-10.122c0.184-0.262 0.184-0.609 0-0.872zM16.016 25.031c-6.925 0-12.866-7.175-14.291-9.034 1.422-1.859 7.356-9.034 14.291-9.034 6.925 0 12.866 7.175 14.291 9.034-1.422 1.859-7.356 9.034-14.291 9.034z"></path><path d="M16.016 9.791c-3.422 0-6.203 2.784-6.203 6.206s2.781 6.203 6.203 6.203 6.203-2.784 6.203-6.203-2.781-6.206-6.203-6.206zM16.016 20.675c-2.581 0-4.681-2.1-4.681-4.681s2.1-4.681 4.681-4.681c2.581 0 4.681 2.1 4.681 4.681s-2.1 4.681-4.681 4.681z"></path><path d="M16.016 14.147c-1.022 0-1.85 0.831-1.85 1.85 0 1.022 0.831 1.85 1.85 1.85s1.85-0.831 1.85-1.85c0-1.022-0.831-1.85-1.85-1.85z"></path>
  </symbol>
    <symbol id="icon--dependencies" role="img" fill="currentColor" preserveAspectRatio="xMinYMin">
    <title>dependencies icon</title>
    "<path d="M26,8.3V4h2V2H4V4H6V8.3a5.6,5.6,0,0,0,1.8,4.2l3.4,3.4L7.8,19.3A6.2,6.2,0,0,0,6,23.7V28H4v2H28V28H26V23.7a5.6,5.6,0,0,0-1.8-4.2L20.8,16l3.4-3.4A5.82,5.82,0,0,0,26,8.3ZM11.4,28L16,23.4,20.6,28H11.4ZM24,8.3a3.63,3.63,0,0,1-1.2,2.8L18,16l4.8,4.8A4,4,0,0,1,24,23.6V28H23.4L16,20.6,8.6,28H8V23.7a3.63,3.63,0,0,1,1.2-2.8L14,16,9.2,11.2A4,4,0,0,1,8,8.3V4H24V8.3Z"/><polygon points="20.5 10 11.5 10 16 14.5 20.5 10"/>
  </symbol>
    <symbol id="icon--custom-fields" role="img" fill="currentColor" preserveAspectRatio="xMinYMin">
    <title>custom-fields icon</title>
    <path d="M8.19,9.64v2H16v12H4.06V15.77h-2v9.84H32v-16ZM30,23.61H18v-12H30v12Z" transform="translate(0 -7.56)"/><polygon points="24.01 13.27 28.1 8.99 26.65 7.61 24.01 10.37 21.38 7.61 19.93 8.99 24.01 13.27"/><polygon points="2.08 6.16 4.08 6.16 4.08 4.08 6.16 4.08 6.16 2.08 4.08 2.08 4.08 0 2.08 0 2.08 2.08 0 2.08 0 4.08 2.08 4.08 2.08 6.16"/>
  </symbol>
    <symbol viewBox="0 0 31 32" id="icon--work" role="img" fill="currentColor" preserveAspectRatio="xMinYMin">
    <title>work</title>
    <path d="M12.685 10l-4.617 3.448-1.646-1.53L5 13.24 7.968 16 14 11.417zm11.003 4h-3.375C16.281 14 13 17.28 13 21.312a7.308 7.308 0 0 0 3.376 6.153V32l6.751-3.375h.561c4.032 0 7.312-3.28 7.312-7.313C31 17.28 27.72 14 23.688 14m0 2A5.318 5.318 0 0 1 29 21.312a5.318 5.318 0 0 1-5.312 5.313h-1.032l-.423.211-3.857 1.929v-2.393l-.919-.59A5.297 5.297 0 0 1 15 21.312 5.319 5.319 0 0 1 20.313 16h3.375"/><path d="M6 4l2-2h2l2 2v2H6V4zM2 20V4h2v4h10V4h2v12.504l2-1.003V2h-5.171L11.414.586 10.829 0H7.171l-.585.586L5.171 2H0v20h13.605l.263-2H2z"/>
  </symbol>
    <symbol viewBox="0 0 28 32" id="icon--success" role="img" fill="currentColor" preserveAspectRatio="xMinYMin">
    <title>success</title>
    <path d="M16.92 13.93L14 8l-2.92 5.93-6.54 1 4.73 4.61L8.15 26 14 22.93 19.85 26l-1.12-6.51 4.73-4.61-6.54-.95zm.41 4.13l-.75.73.18 1 .43 2.52-2.26-1.19-.93-.45-.93.49-2.26 1.19.43-2.52.18-1-.75-.73-1.83-1.78 2.53-.37 1-.15.47-.94L14 12.52l1.13 2.29.47.94 1 .15 2.53.37-1.8 1.79z"/><path d="M20 2V0h-2v2h-8V0H8v2H0v30h28V2h-8zm6 28H2V4h6v2h2V4h8v2h2V4h6v26z"/>
  </symbol>


  <symbol id="icon--thumbsup-filled" role="img" fill="currentColor" preserveAspectRatio="xMinYMin">
    <title>thumbsup-filled icon</title>
    <g id="Thumb_exports" stroke="none" stroke-width="1" fill="none" fill-rule="evenodd">
      <g id="thumbsup_filled" fill="currentColor">
        <g id="Group" transform="translate(2.000000, 2.000000)">
          <path d="M19.1550293,10.013289 L26.9777689,10.013289 C26.9777689,10.013289 29.254379,10.1813268 28.9764818,13.0637207 C28.6985846,15.9461146 27.5628414,25.5107076 27.5628414,25.5107076 C27.5628414,25.5107076 27.1158613,28 24.6923165,28 L8,28 L8,12.5102539 C8,7.80981445 13.0699284,9.0757212 15.2079559,2.51828008 C15.7344723,0.370137304 17.839806,-1.05021146 19.9000515,0.984094138 C22.5058685,4.60870724 19.1550293,10.013289 19.1550293,10.013289 Z" id="Combined-Shape"></path>
          <rect id="Rectangle" x="0" y="10" width="6" height="18"></rect>
        </g>
      </g>
    </g>
  </symbol>

  <symbol id="icon--thumbsup-lined" role="img" fill="currentColor" preserveAspectRatio="xMinYMin">
    <title>thumbsup-lined icon</title>
    <g id="Thumb_exports" stroke="none" stroke-width="1" fill="none" fill-rule="evenodd">
      <g id="thumbsup_lined" fill-rule="nonzero" fill="currentColor">
        <path d="M10.0035351,27.9817776 L25.693908,27.9817776 C26.4158249,27.9817776 26.8872709,27.7148437 27.2259537,27.2429022 C27.4398863,26.9447954 27.5521499,26.639841 27.5743182,26.5325217 C27.5857774,26.4501982 27.5857774,26.4501982 27.6375365,26.0763952 C27.687871,25.7123351 27.7439628,25.3049517 27.8043714,24.864103 C27.9769588,23.604598 28.1495417,22.3294283 28.310585,21.1175501 C28.3381007,20.9103337 28.3381007,20.9103337 28.3655684,20.7028239 C28.6672611,18.4217389 28.8843657,16.6881893 28.9835232,15.7332065 C29.0716441,14.8845171 28.8626671,14.4555607 28.4596403,14.2030748 C28.242611,14.0671116 28.0139016,14.0089015 27.9774373,14.0041643 L17.4058874,13.9877958 L18.5522861,12.4046843 C18.6148763,12.3182508 18.7338402,12.1431102 18.8902796,11.8937593 C19.1546791,11.4723294 19.4196899,11.0047736 19.6664822,10.5062892 C20.2456936,9.33636712 20.6305185,8.18733951 20.734943,7.14969616 C20.83897,6.11600374 20.6584451,5.2586617 20.1632732,4.57991628 C18.8971468,3.47678355 17.5862283,4.0299569 17.1538236,5.65586092 C16.3543377,7.93270127 15.2721451,9.34296783 13.7337302,10.4298617 C13.5082832,10.5891406 13.2756565,10.7406809 13.0037877,10.9080533 C12.8395793,11.0091461 12.184217,11.4017138 12.3324282,11.3124814 C10.8816324,12.1859507 10.3444266,12.7718811 10.0035351,14.2048542 L10.0035351,27.9817776 Z M28.0472727,12.007198 C28.4495402,12.0347679 28.9790424,12.1695343 29.5202247,12.5085711 C30.5697538,13.1660739 31.1380819,14.3326519 30.9712108,15.9397819 C30.8694684,16.9196592 30.6508456,18.6653318 30.3466839,20.9650848 C30.3191326,21.1732263 30.3191326,21.1732263 30.291538,21.3810366 C30.1300993,22.5958907 29.9571657,23.8736514 29.7842366,25.1356501 C29.7237144,25.5773276 29.6675133,25.9855046 29.6170722,26.3503359 C29.5651763,26.7251273 29.5651763,26.7251273 29.5449604,26.8602844 C29.4640428,27.2787225 29.25727,27.8404031 28.8492729,28.4089313 C28.1514064,29.3813814 27.0922432,29.9810825 25.693908,29.9810825 L8.00515176,29.9810825 L8.00515176,14.0907633 L8.02954826,13.871212 C8.50856386,11.7424488 9.39217143,10.749291 11.3020223,9.59944195 C11.1654322,9.68167766 11.8043874,9.298938 11.956479,9.2053048 C12.1951032,9.05839894 12.393776,8.92897736 12.5809753,8.79672056 C13.7847307,7.9462644 14.6083402,6.87297212 15.2450396,5.06928775 C16.0201368,2.13293637 19.0986369,0.890471234 21.5775153,3.16322874 L21.6923592,3.28804976 C22.5690348,4.42033885 22.8785511,5.80702489 22.7232739,7.34997893 C22.5912983,8.66139139 22.1341008,10.0265124 21.4572349,11.3936824 C21.3554882,11.5991959 21.2511641,11.799753 21.1451749,11.9947365 L28.0472727,12.007198 Z M3.99838336,13.9958256 L3.99838336,27.9909594 L7.99515008,27.9909594 L7.99515008,13.9958256 L3.99838336,13.9958256 Z M9.99353344,11.9965208 L9.99353344,29.9902643 L2,29.9902643 L2,11.9965208 L9.99353344,11.9965208 Z" id="Combined-Shape"></path>
      </g>
    </g>
  </symbol>

  <symbol id="icon--start-date" role="img" fill="currentColor" preserveAspectRatio="xMinYMin">
    <title>start-date icon</title>
    <rect x="-164" y="-304" class="st0" width="360" height="640" fill="none" />
    <g>
    	<path d="M22,2V1c0-0.6-0.4-1-1-1s-1,0.4-1,1v1H10V1c0-0.6-0.4-1-1-1S8,0.4,8,1v1c-4.4,0-8,3.6-8,8v14c0,4.4,3.6,8,8,8h14 c4.4,0,8-3.6,8-8V10C30,5.6,26.4,2,22,2z M28,24c0,3.3-2.7,6-6,6H8c-3.3,0-6-2.7-6-6V10c0-3.3,2.7-6,6-6v1c0,0.6,0.4,1,1,1 s1-0.4,1-1V4h10v1c0,0.6,0.4,1,1,1s1-0.4,1-1V4c3.3,0,6,2.7,6,6V24z"/>
    	<path d="M20.3,14.4l-5.8-3.3c-0.5-0.3-1-0.4-1.5-0.4c-1.6,0-3,1.3-3,3v6.7c0,1.8,1.4,3,3,3c0.5,0,1-0.1,1.5-0.4l5.8-3.3 C22.3,18.4,22.3,15.6,20.3,14.4z M19.3,17.9l-5.8,3.3c-0.2,0.1-0.3,0.1-0.5,0.1c-0.5,0-1-0.4-1-1v-6.7c0-0.6,0.5-1,1-1 c0.2,0,0.3,0,0.5,0.1l5.8,3.3c0.5,0.3,0.5,0.7,0.5,0.9S19.7,17.6,19.3,17.9z"/>
    </g>
  </symbol>

  <symbol id="icon--csv-importer" role="img" fill="currentColor" preserveAspectRatio="xMinYMin">
    <title>csv-importer icon</title>

    <g fill="none" fill-rule="evenodd"><path d="M25.24 26.6L5.13 28.7a1.2 1.2 0 0 1-1.31-1.06l-2.63-25a1.2 1.2 0 0 1 1.06-1.3l14.2-1.5 7.85 6.4 2 19.03a1.2 1.2 0 0 1-1.06 1.32z" fill="#18D7B4"/><path d="M16.38-.14l.63 5.97a1.2 1.2 0 0 0 1.32 1.07l5.97-.63-7.92-6.41z" fill="#26A78F"/><path d="M12 14.16l-3.67.38a.61.61 0 0 1-.68-.55l-.38-3.66a.61.61 0 0 1 .55-.68l3.66-.38c.34-.04.64.2.68.55l.38 3.66c.04.34-.2.64-.55.68zM19.16 13.4l-3.66.39a.61.61 0 0 1-.68-.55l-.38-3.66a.61.61 0 0 1 .54-.68l3.67-.38c.34-.04.64.2.67.54l.39 3.67c.03.34-.21.64-.55.67zM12.75 21.32l-3.67.39a.61.61 0 0 1-.67-.55l-.39-3.66a.61.61 0 0 1 .55-.68l3.66-.38c.34-.04.64.2.68.54l.38 3.67c.04.34-.2.64-.54.67zM19.92 20.57l-3.67.39a.61.61 0 0 1-.68-.55l-.38-3.67a.61.61 0 0 1 .55-.67l3.66-.39c.34-.03.64.21.68.55l.38 3.67c.04.33-.2.63-.54.67z" fill="#FFF"/><g><path d="M24.13 17.98a7 7 0 0 0-7 6.97 7 7 0 0 0 14 0 7 7 0 0 0-7-6.97z" fill="#008CE3"/><path d="M27.4 25.41h-2.8v2.8c0 .25-.22.46-.47.46a.47.47 0 0 1-.47-.47v-2.79h-2.8a.47.47 0 1 1 0-.93h2.8V21.7c0-.25.2-.46.47-.46.25 0 .46.2.46.46v2.8h2.8a.47.47 0 1 1 0 .92z" fill="#FFF"/></g></g>
  </symbol>

  <symbol id="icon--csv-importer-inverted" role="img" fill="currentColor" preserveAspectRatio="xMinYMin">
    <title>csv-importer-inverted icon</title>

    <g fill="none" fill-rule="evenodd"><g fill="#FFF"><path d="M25.24 26.6L5.13 28.7a1.2 1.2 0 0 1-1.31-1.06l-2.63-25a1.2 1.2 0 0 1 1.06-1.3l14.2-1.5 7.85 6.4 2 19.03a1.2 1.2 0 0 1-1.06 1.32z" opacity=".38"/><path d="M16.38-.14l.63 5.97a1.2 1.2 0 0 0 1.32 1.07l5.97-.63-7.92-6.41z" opacity=".69"/><path d="M12 14.16l-3.67.38a.61.61 0 0 1-.68-.55l-.38-3.66a.61.61 0 0 1 .55-.68l3.66-.38c.34-.04.64.2.68.55l.38 3.66c.04.34-.2.64-.55.68zM19.16 13.4l-3.66.39a.61.61 0 0 1-.68-.55l-.38-3.66a.61.61 0 0 1 .54-.68l3.67-.38c.34-.04.64.2.67.54l.39 3.67c.03.34-.21.64-.55.67zM12.75 21.32l-3.67.39a.61.61 0 0 1-.67-.55l-.39-3.66a.61.61 0 0 1 .55-.68l3.66-.38c.34-.04.64.2.68.54l.38 3.67c.04.34-.2.64-.54.67zM19.92 20.57l-3.67.39a.61.61 0 0 1-.68-.55l-.38-3.67a.61.61 0 0 1 .55-.67l3.66-.39c.34-.03.64.21.68.55l.38 3.67c.04.33-.2.63-.54.67z"/></g><path d="M24.13 17.98a7 7 0 0 0-7 6.97 7 7 0 0 0 14 0 7 7 0 0 0-7-6.97z" fill-opacity=".6" fill="#151B26"/><path d="M27.4 25.41h-2.8v2.8c0 .25-.22.46-.47.46a.47.47 0 0 1-.47-.47v-2.79h-2.8a.47.47 0 1 1 0-.93h2.8V21.7c0-.25.2-.46.47-.46.25 0 .46.2.46.46v2.8h2.8a.47.47 0 1 1 0 .92z" fill="#FFF"/></g>
  </symbol>

  <symbol id="icon--timeline" role="img" fill="currentColor" preserveAspectRatio="xMinYMin">
    <title>timeline icon</title>
    <g><polygon points="0,16 14,16 14,14 2,14 2,10 14,10 14,8 0,8"/><polygon points="8,26 14,26 14,24 10,24 10,20 14,20 14,18 8,18"/><path d="M18,18v-2h6V8h-6V4h-2v26h2v-4h14v-8H18z M18,10h4v4h-4V10z M30,24H18v-4h12V24z"/></g>
  </symbol>

  <symbol id="icon--list" role="img" fill="currentColor" preserveAspectRatio="xMinYMin">
    <g stroke="none" stroke-width="1" fill-rule="evenodd">
      <g transform="translate(-512.000000, -1322.000000)">
        <g transform="translate(0.000000, 568.000000)">
          <path d="M512,784 L544,784 L544,754 L512,754 L512,784 Z M514,782 L542,782 L542,756 L514,756 L514,782 Z M524,764 L536.001,764 L536.001,762 L524,762 L524,764 Z M520,764 L522,764 L522,762 L520,762 L520,764 Z M524,770 L536.001,770 L536.001,768 L524,768 L524,770 Z M520,770 L522,770 L522,768 L520,768 L520,770 Z M524,776 L536.001,776 L536.001,774 L524,774 L524,776 Z M520,776 L522,776 L522,774 L520,774 L520,776 Z" id="Page-1"></path>
        </g>
      </g>
    </g>
  </symbol>

  <symbol id="icon--boards" role="img" fill="currentColor" preserveAspectRatio="xMinYMin">
    <g transform="translate(-1130.000000, -1324.000000)">
      <g transform="translate(0.000000, 568.000000)">
        <path d="M1146,783 L1142,783 L1140,783 L1140,756 L1142,756 L1146,756 L1148,756 L1148,783 L1146,783 Z M1146,781 L1146,758 L1142,758 L1142,781 L1146,781 Z M1136,775 L1132,775 L1130,775 L1130,756 L1132,756 L1136,756 L1138,756 L1138,775 L1136,775 Z M1136,773 L1136,758 L1132,758 L1132,773 L1136,773 Z M1156,779 L1152,779 L1150,779 L1150,756 L1152,756 L1156,756 L1158,756 L1158,779 L1156,779 Z M1156,777 L1156,758 L1152,758 L1152,777 L1156,777 Z" id="Combined-Shape"></path>
      </g>
    </g>
  </symbol>
</svg>
