<?xml version="1.0" standalone="no"?>
<!DOCTYPE svg PUBLIC "-//W3C//DTD SVG 20010904//EN"
 "http://www.w3.org/TR/2001/REC-SVG-20010904/DTD/svg10.dtd">
<svg version="1.0" xmlns="http://www.w3.org/2000/svg"
 width="300.000000pt" height="300.000000pt" viewBox="0 0 300.000000 300.000000"
 preserveAspectRatio="xMidYMid meet">
<metadata>
Created by potrace 1.11, written by Peter Selinger 2001-2013
</metadata>
<g transform="translate(0.000000,300.000000) scale(0.100000,-0.100000)"
fill="#000000" stroke="none">
<path d="M0 1500 l0 -1500 1500 0 1500 0 0 1500 0 1500 -1500 0 -1500 0 0
-1500z m2987 1075 c0 -8 -4 -12 -9 -9 -5 3 -6 10 -3 15 9 13 12 11 12 -6z
m-1406 -466 c30 -18 57 -38 61 -43 4 -6 8 -8 8 -4 0 4 55 -25 123 -64 67 -39
134 -79 149 -87 24 -14 27 -21 24 -58 -2 -27 0 -40 7 -36 6 4 7 1 2 -7 -5 -8
-8 -51 -7 -97 l2 -84 -32 17 c-26 14 -147 83 -268 154 -8 5 -48 28 -88 50
l-72 42 -35 -22 c-19 -12 -35 -18 -35 -14 0 5 -7 -1 -15 -13 -15 -22 -52 -22
-38 0 3 5 1 7 -5 3 -6 -3 -32 7 -59 23 -26 17 -72 42 -100 57 -40 20 -50 30
-43 40 14 16 254 154 269 154 6 0 11 3 11 8 0 14 45 28 66 21 12 -4 45 -22 75
-40z m-511 -234 c6 -8 21 -17 33 -21 11 -3 43 -21 71 -39 28 -17 58 -35 66
-39 8 -4 33 -18 55 -31 22 -13 64 -36 93 -52 30 -15 62 -36 73 -46 10 -9 21
-17 24 -17 15 1 65 -32 60 -40 -3 -6 1 -7 9 -4 8 3 40 -11 70 -30 31 -20 58
-36 61 -36 10 0 180 -104 187 -114 4 -6 8 -8 8 -3 0 8 51 -22 61 -37 10 -13
11 -256 2 -256 -5 0 -44 21 -88 46 -44 26 -89 51 -100 58 -46 26 -47 27 -33
43 12 14 11 15 -8 3 -18 -11 -30 -7 -102 35 -45 26 -79 52 -75 58 3 6 1 7 -6
3 -13 -8 -120 50 -128 70 -2 7 -11 10 -18 8 -7 -3 -23 4 -34 15 -12 12 -23 21
-26 21 -9 -1 -69 32 -85 45 -8 8 -18 13 -21 12 -8 -3 -173 95 -181 107 -5 6
-7 66 -7 134 2 124 9 143 39 107z m50 -555 c45 -27 84 -50 87 -50 3 0 48 -26
102 -58 53 -32 115 -69 139 -82 l42 -24 39 22 c21 12 46 22 55 22 10 0 14 5
11 10 -3 6 -1 10 5 10 12 0 218 -118 225 -129 2 -4 -31 -27 -73 -50 -42 -23
-84 -46 -92 -51 -99 -59 -128 -76 -147 -87 -20 -10 -32 -6 -104 35 -44 26 -93
53 -107 61 -15 8 -28 18 -30 23 -2 4 -9 8 -14 8 -6 0 -60 28 -119 62 l-108 63
0 132 c-1 73 1 133 3 133 3 0 41 -22 86 -50z m-190 -310 c0 -5 -2 -10 -4 -10
-3 0 -8 5 -11 10 -3 6 -1 10 4 10 6 0 11 -4 11 -10z"/>
<path d="M1350 2041 c0 -7 -5 -9 -12 -5 -7 5 -8 3 -3 -5 5 -9 10 -10 18 -2 6
6 8 14 4 18 -4 3 -7 1 -7 -6z"/>
<path d="M1205 1949 c-4 -6 -5 -12 -2 -15 2 -3 7 2 10 11 7 17 1 20 -8 4z"/>
<path d="M1236 1937 c3 -10 9 -15 12 -12 3 3 0 11 -7 18 -10 9 -11 8 -5 -6z"/>
<path d="M1806 1934 c-8 -22 -4 -25 11 -9 7 8 9 16 4 19 -5 3 -12 -1 -15 -10z"/>
<path d="M1654 1892 c3 -5 0 -13 -6 -15 -9 -4 -10 -6 -1 -6 17 -1 25 16 12 25
-7 4 -9 3 -5 -4z"/>
<path d="M1795 1879 c-3 -4 2 -6 10 -5 21 3 28 13 10 13 -9 0 -18 -4 -20 -8z"/>
<path d="M1130 1755 c0 -8 5 -15 10 -15 6 0 10 7 10 15 0 8 -4 15 -10 15 -5 0
-10 -7 -10 -15z"/>
<path d="M1670 1410 c0 -5 5 -10 10 -10 6 0 10 5 10 10 0 6 -4 10 -10 10 -5 0
-10 -4 -10 -10z"/>
<path d="M1280 1181 c0 -6 4 -13 10 -16 6 -3 7 1 4 9 -7 18 -14 21 -14 7z"/>
<path d="M1376 1022 c-3 -5 1 -9 9 -9 8 0 15 4 15 9 0 4 -4 8 -9 8 -6 0 -12
-4 -15 -8z"/>
<path d="M1343 997 c0 -8 6 -14 14 -14 9 0 10 4 2 14 -6 7 -12 13 -14 13 -1 0
-2 -6 -2 -13z"/>
<path d="M1564 999 c-2 -4 1 -11 7 -14 5 -4 8 -12 6 -19 -3 -7 4 -13 14 -13
18 -2 18 -1 3 14 -15 15 -15 18 1 29 16 12 15 13 -5 11 -12 -1 -24 -5 -26 -8z"/>
<path d="M1496 977 c3 -10 9 -15 12 -12 3 3 0 11 -7 18 -10 9 -11 8 -5 -6z"/>
</g>
</svg>
